<svg id="Calque_1" data-name="Calque 1" xmlns="http://www.w3.org/2000/svg" viewBox="0 0 499.89 502.2"><defs><style>.cls-1{fill:#0d6efd;}.cls-2{fill:#00a19a;}.cls-3{fill:#cbbba0;}.cls-4{fill:#009fe3;}.cls-5{fill:#1d1d1b;}.cls-6{fill:none;}.cls-7{fill:#fff;}.cls-8{fill:#432918;}</style></defs><circle id="Cercle" class="cls-1" cx="249.95" cy="249.95" r="249.95"/><g id="Sweet"><path class="cls-2" d="M432.53,414.43c-1.39-1.66-7.18,3.32-16.06,3-6.67-.24-11.58-3.34-14.53-5.25-13.69-8.89-10.54-19.81-23.71-32.28-3.7-3.51-13.78-13.07-22.94-10.51-6.86,1.91-5.82,11.6-13.76,28.52-3.34,7.1-7.07,12.49-14.54,23.27-7.77,11.23-15,20-29.82,36.79-29.4,33.26-34.4,36.51-32.81,39.54,4.62,8.8,53.35-6.44,82.66-18.95,14.36-6.14,27.78-14.51,54.62-31.26a114.5,114.5,0,0,0,21.42-18.1C423.87,428.33,434.52,416.8,432.53,414.43Z" transform="translate(0 1.1)"/><path class="cls-2" d="M158.32,445.23c-2.51.87-2.42,2.66-6.13,5.36-5,3.62-10,4-16.08,4.59-15.93,1.66-23.9,2.49-24.41,4.43-.74,2.84,11.86,8.63,37.09,20.09,24.29,11,36.5,16.49,39.85,13.53,5.86-5.18-.91-22.37-7.34-31.92C175.77,453.09,165.27,442.79,158.32,445.23Z" transform="translate(0 1.1)"/></g><g id="Visage"><path class="cls-3" d="M382.42,258.29c-.38-.41-3.77-4-8.18-3.67-5.44.37-8.09,7.08-12.76,13.1-12.14,15.63-13.82,29.63-15.83,29.34-4.39-.63,14.31-65.63-7.66-129.43-5.57-16.18-15.47-43.73-42.38-63.94-30.89-23.18-64.64-22-76.09-21.48-9,.44-56.22,2.74-84.25,39.3-10.66,13.89-15.15,28.32-17.37,35.64a130.12,130.12,0,0,0-4.08,56.07L116.88,317A167.21,167.21,0,0,1,146,287.63c20.24-15.78,24.11-10.84,39.32-25.15,3.46-3.26,8.14-8.11,15.32-8.91,8.32-.93,15.08,4.15,17.36,5.76,9.38,6.65,31.1,17.21,83.23,35.11A48.45,48.45,0,0,1,315,303.88c3.71,3.62,9.09,8.86,11.23,16.77,1.26,4.62.5,12.86-1,29.34-.31,3.44-.79,8.18,2,11,1.56,1.55,4.44,2.84,6.63,2.09,8.82-3,4.91-38,7.66-38.25,1.31-.12,1.33,7.81,6.13,10.48,6,3.32,15.43-3.66,16.85-4.72,11.81-8.72,14.46-22.32,19.41-47.68C386.41,270.29,386.7,262.92,382.42,258.29Z" transform="translate(0 1.1)"/><path class="cls-3" d="M337.65,384.63c-6.28-3.91-16.3,3-21,7.39-7.26,6.86-7.74,13.54-11.3,21.33-1.84,4-4.8,9-47.59,37.74-20.22,13.58-25.62,16.54-33.89,17.23a80.56,80.56,0,0,1-23.39-1.64c-10.5-2.59-13.74-6.1-16.94-4.1-6,3.77-5.21,22.76,4.16,30.6,1.73,1.44,3.34,2,20.92,4.18,12.23,1.52,18.34,2.28,24.19,2.65,18.45,1.16,14.94-1,23.36.43,3.19.55,6.46,1.33,9.54-.43,4.4-2.5,17.3-26,46.78-59.71,1.34-1.54,2.73-3.13,4.16-4.8,15.2-17.66,9.92-13.13,16.13-19.69,4.08-4.3,6.48-6.39,8.07-10.66C343.37,398.43,343.19,388.09,337.65,384.63Z" transform="translate(0 1.1)"/></g><g id="Oeil_G" data-name="Oeil G"><path class="cls-4" d="M157.59,236.27a25.39,25.39,0,0,0-11.59-.56c-.27,0-.54.13-.81.18a11,11,0,0,0-3.3,7.8,11.46,11.46,0,0,0,9.21,11,15,15,0,0,1,3.43-1.31c2.43-.65,3.51-.54,6.43-.67a11.1,11.1,0,0,0,4.76-9,10.7,10.7,0,0,0-.76-3.93l-.33-.23A26.11,26.11,0,0,0,157.59,236.27Z" transform="translate(0 1.1)"/><path class="cls-5" d="M174.46,242.1c-2.75-2.53-4.39-4-6.65-5.28-18-9.81-31.78-2.19-31.78-2.19-5.17,2.86-11.33,8.62-10.38,11.84a3.18,3.18,0,0,0,1.78,1.83,27.1,27.1,0,0,1,3.9-4.92,28.07,28.07,0,0,1,13.86-7.49c.27,0,.54-.13.81-.18a25.39,25.39,0,0,1,11.59.56,26.11,26.11,0,0,1,7,3.26l.33.23a32.5,32.5,0,0,1,8.85,9.08c.34-.09,3.16-.91,3.4-2.73C177.35,245.08,176.63,244.1,174.46,242.1Z" transform="translate(0 1.1)"/></g><g id="Oeil_D" data-name="Oeil D"><path class="cls-4" d="M270.91,233h0Z" transform="translate(0 1.1)"/><path class="cls-4" d="M260.14,238.19a10.92,10.92,0,0,0-2.16,6.48,11.71,11.71,0,0,0,7.65,10.68,39.33,39.33,0,0,0,7.13-1.7c2.29-1,3.3-.79,6.05-1q.75,0,1.68-.15a11.06,11.06,0,0,0,3.36-7.85,10.93,10.93,0,0,0-2.19-6.52,27.65,27.65,0,0,0-3.26-1.05A30.41,30.41,0,0,0,260.14,238.19Z" transform="translate(0 1.1)"/><path class="cls-5" d="M296.11,242.54c-2.89-2.36-4.61-3.78-7-4.93A45.3,45.3,0,0,0,272.34,233l-.45,0-.74,0h-.27c-9.2-.3-15.11,2.61-15.11,2.61-5.42,2.66-11.9,8-10.9,11.06a3.13,3.13,0,0,0,1.87,1.7,26.38,26.38,0,0,1,4.09-4.59,30.06,30.06,0,0,1,9.31-5.55,30.41,30.41,0,0,1,18.26-1.09,27.65,27.65,0,0,1,3.26,1.05,31.68,31.68,0,0,1,13.77,10.69c.36-.09,3.31-.85,3.57-2.55C299.15,245.33,298.38,244.42,296.11,242.54Z" transform="translate(0 1.1)"/></g><g id="Masque"><path class="cls-6" d="M335.43,327.69l-6.88-1.53,0-.13c-.27,1.72-.55,3.37-.8,4.85-1.8,10.44-4.59,15.84-1.54,22a11.61,11.61,0,0,0,1.95,2.66Z" transform="translate(0 1.1)"/><path class="cls-7" d="M335.43,362c-2.05-1.75-3.71-3.16-5-4.37l7.72-30.86,5.1,1.47,1.66-3-5-2L355.09,276l-1.54-1.15-6.89,17.24L337,321.82s-7.66-1.3-7.68-1.14c.51-4.89.62-9.92-.49-13.8-4.17-14.5-25.07-11.55-66.9-30.63-14.21-6.49-28.84-12.06-42.89-18.9-10.14-4.94-19.45-9.83-29.11-6.64-5.41,1.8-6.25,4.59-13.78,11.75-5.18,4.92-17.41,13-41.88,29.11a65.63,65.63,0,0,0-15.32,13.27,62.23,62.23,0,0,0-6.63,9.7L119.94,335A21.14,21.14,0,0,0,97.72,338c-8.87,7.7-6.49,19.76-6.12,21.45.31,1.47,1.48,6.17,6.89,12.26,10.51,11.82,19.36,9,28.34,17.61,8.21,7.86,4.26,13.51,12.26,29.88,7.17,14.69,16.93,23.59,23,29.1,9.22,8.41,23.5,21.44,46,25.28,24.89,4.25,44.55-5.38,50.55-8.43,22.32-11.32,40.15-33.12,43.66-47.49a24.83,24.83,0,0,1,4.6-10.21c2.91-3.68,6-5.15,17.36-10.21,14.27-6.37,16.74-7.34,19.41-10.73.94-1.19,5.85-7.41,4.08-13.27C346.57,369.59,343.77,369.16,335.43,362Zm-7.66-31.15c.25-1.48.53-3.13.8-4.85l0,.13,6.88,1.53-7.25,27.81a11.61,11.61,0,0,1-1.95-2.66C323.18,346.72,326,341.32,327.77,330.88Z" transform="translate(0 1.1)"/></g><g id="Sourcile"><path class="cls-8" d="M307.17,204.93c-9.72-7.78-14.59-11.67-18.38-13.28-13.06-5.52-29.81-4.11-41.53,4.09-8.19,5.72-13.94,14.75-12.6,16.34.86,1,4.35-1.38,10.21-3.41,9.14-3.16,16.77-2.72,23.49-2.72a101.28,101.28,0,0,1,31.32,7.15c3.87,1.55,5.45,2.38,5.45,2.38,3.92,2.05,4.71,3.25,7.15,3.75s6.08.26,6.81-1.37C319.58,216.74,318.93,214.34,307.17,204.93Z" transform="translate(0 1.1)"/><path class="cls-8" d="M168.94,203.51c-9.7-9.13-24.67-12.17-37-8.1-3.6,1.18-8.41,4.48-18,11.07-11.62,8-12.47,10.24-12.14,11.38.48,1.65,3.81,2.23,6,2s3.09-1.32,6.86-2.93c0,0,1.51-.64,5.17-1.77a86.4,86.4,0,0,1,29-3.83c6.07.67,13,1,20.91,5,5.08,2.55,8,5.22,8.85,4.32C179.94,219.23,175.72,209.88,168.94,203.51Z" transform="translate(0 1.1)"/></g><path id="Cheveux" class="cls-8" d="M119.68,271.35c2.28-.59-6.85-26.93-5.22-68.17.9-22.55,1.57-39.43,10.43-58.21,19.26-40.82,60.29-54.75,66.28-56.68,8.34-2.69,42.43-12.58,78.19,3.83,47,21.58,62.28,72.77,67.76,91.15,17.53,58.8,1.11,112.21,7.45,113.36,4.41.8,12.32-25.12,15.64-36a386.93,386.93,0,0,0,15.64-85.79c3.56-48.23,5.35-72.35-3-92.68-14.67-35.79-43.93-54-52.13-59-21.68-13.1-41.32-16.14-54.36-18-52-7.49-89.34,11-153.95,42.9-17.2,8.5-37,19.4-36.21,31.57.71,10.56,16.27,11.44,24.1,28.57,5.35,11.73,1.8,19.52,0,46.73-.16,2.28-1.77,27.52,0,49C103.4,241.6,117.19,272,119.68,271.35Z" transform="translate(0 1.1)"/></svg>