<svg width="35" height="38" viewBox="0 0 35 38" fill="none" xmlns="http://www.w3.org/2000/svg">
<path d="M9.72222 0C4.35361 0 0 4.72678 0 10.5556V27.4444C0 33.2732 4.35361 38 9.72222 38H25.2778C30.6464 38 35 33.2732 35 27.4444V10.5556C35 4.72678 30.6464 0 25.2778 0H9.72222ZM29.1667 4.22222C30.24 4.22222 31.1111 5.168 31.1111 6.33333C31.1111 7.49867 30.24 8.44444 29.1667 8.44444C28.0933 8.44444 27.2222 7.49867 27.2222 6.33333C27.2222 5.168 28.0933 4.22222 29.1667 4.22222ZM17.5 8.44444C22.8686 8.44444 27.2222 13.1712 27.2222 19C27.2222 24.8288 22.8686 29.5556 17.5 29.5556C12.1314 29.5556 7.77778 24.8288 7.77778 19C7.77778 13.1712 12.1314 8.44444 17.5 8.44444ZM17.5 12.6667C15.9529 12.6667 14.4692 13.3339 13.3752 14.5217C12.2812 15.7094 11.6667 17.3203 11.6667 19C11.6667 20.6797 12.2812 22.2906 13.3752 23.4783C14.4692 24.6661 15.9529 25.3333 17.5 25.3333C19.0471 25.3333 20.5308 24.6661 21.6248 23.4783C22.7188 22.2906 23.3333 20.6797 23.3333 19C23.3333 17.3203 22.7188 15.7094 21.6248 14.5217C20.5308 13.3339 19.0471 12.6667 17.5 12.6667Z" fill="#F6F2E9"/>
</svg>
