<svg width="36" height="37" viewBox="0 0 36 37" fill="none" xmlns="http://www.w3.org/2000/svg">
<path d="M32 0H4C1.79 0 0 1.83972 0 4.11111V32.8889C0 35.1603 1.79 37 4 37H32C34.21 37 36 35.1603 36 32.8889V4.11111C36 1.83972 34.21 0 32 0ZM28.1 13.3899C28.1 13.5667 28.1 13.7414 28.1 14.0949C28.1 20.7899 23.128 28.5434 14.042 28.5434C11.3 28.5434 8.728 27.6616 6.5 26.2536C6.842 26.2536 7.358 26.2536 7.7 26.2536C9.928 26.2536 12.158 25.3717 13.872 24.1384C11.644 24.1384 9.93 22.5536 9.244 20.6152C9.586 20.6152 9.93 20.7919 10.102 20.7919C10.616 20.7919 10.96 20.7919 11.474 20.6152C9.246 20.0869 7.532 18.1485 7.532 15.6818C8.218 16.0333 8.904 16.2101 9.76 16.3869C8.388 15.1536 7.532 13.7434 7.532 11.9818C7.532 11.1 7.704 10.2202 8.218 9.51517C10.618 12.5101 14.218 14.6253 18.332 14.8C18.332 14.4485 18.16 14.0949 18.16 13.5667C18.16 10.7485 20.388 8.45656 23.132 8.45656C24.504 8.45656 25.874 8.98483 26.732 10.0414C27.932 9.86461 28.96 9.33633 29.818 8.80805C29.476 10.0414 28.618 10.9232 27.59 11.6262C28.618 11.4494 29.476 11.2747 30.504 10.7444C29.814 11.8051 28.958 12.6848 28.1 13.3899Z" fill="#F6F2E9"/>
</svg>
