<?xml version="1.0" encoding="utf-8"?>
<!-- Generator: Adobe Illustrator 25.0.0, SVG Export Plug-In . SVG Version: 6.00 Build 0)  -->
<svg version="1.1" id="Calque_1" xmlns="http://www.w3.org/2000/svg" xmlns:xlink="http://www.w3.org/1999/xlink" x="0px" y="0px"
	 viewBox="0 0 641.7 537" style="enable-background:new 0 0 641.7 537;" xml:space="preserve">
<style type="text/css">
	.st0{fill:#F8AF00;}
	.st1{fill-rule:evenodd;clip-rule:evenodd;fill:#A7A9AC;}
	.st2{fill:#939598;}
	.st3{fill-rule:evenodd;clip-rule:evenodd;fill:#FFFFFF;}
	.st4{fill:#FFFFFF;}
	.st5{fill-rule:evenodd;clip-rule:evenodd;fill:#231F20;}
	.st6{fill:#58595B;}
	.st7{fill-rule:evenodd;clip-rule:evenodd;fill:#FCD77E;}
	.st8{fill-rule:evenodd;clip-rule:evenodd;fill:#FCBF29;}
	.st9{fill:#CB9920;}
	.st10{fill-rule:evenodd;clip-rule:evenodd;fill:#FCCA51;}
	.st11{fill:#231F20;}
</style>
<g id="Fond">
	<rect y="0" class="st0" width="641.7" height="537"/>
</g>
<g id="Lamp1">
	<path class="st1" d="M147.8,262.4c0.9-1.1,3.1-1.2,5.2-0.2s3.3,2.9,2.9,4.3l4.6,2.3c1,0.5,1.4,1.8,0.9,2.8l0,0l-0.4,0.7l0.7,0.4
		c1.7,0.9,2.4,2.9,1.5,4.6l-9.2,18.2l1.2,2.3l-2.3,4.6l-32.2-16.3l1.6-3.2l2.6-0.4l9.9-19.6c0.9-1.7,2.9-2.4,4.6-1.5l0.7,0.4
		l0.4-0.7c0.5-1,1.8-1.4,2.8-0.9L147.8,262.4z"/>
	<path class="st2" d="M125.6,282.8l9.9-19.6c0.3-0.6,0.9-1.1,1.6-1.3c0.7-0.2,1.4-0.2,2,0.1l22.2,11.2c1.3,0.7,1.9,2.3,1.2,3.6
		l-9.2,18.2l-0.2,0.4l0.2,0.4l1,2l-1.8,3.6l-30.8-15.6l1.1-2.2l2.2-0.4l0.4-0.1L125.6,282.8L125.6,282.8z M141.1,261.4l19.5,9.9l0,0
		c0.2-0.3,0.2-0.7,0.1-1c-0.1-0.3-0.3-0.6-0.6-0.8l-17.2-8.7c-0.3-0.2-0.7-0.2-1-0.1l0,0C141.6,260.8,141.3,261.1,141.1,261.4
		L141.1,261.4L141.1,261.4z M162,271.9L162,271.9c0.7-1.4,0.1-3.1-1.2-3.8l-4.1-2.1c0-0.7-0.2-1.3-0.6-1.8c-1.4-2.1-3.9-3.4-6.5-3.3
		c-0.7,0-1.3,0.3-1.8,0.6l-4.1-2.1c-0.7-0.3-1.4-0.4-2.2-0.2l0,0c-0.7,0.2-1.3,0.7-1.6,1.4l0,0c-2.1-1-4.6-0.2-5.6,1.9l-9.7,19.2
		l-2.2,0.4l-0.4,0.1l-0.2,0.3l-1.6,3.2l-0.3,0.7l0.7,0.3l32.2,16.3l0.7,0.3l0.3-0.7l2.3-4.6l0.2-0.3l-0.2-0.4l-1-2l9-17.9
		C164.9,275.5,164.1,273,162,271.9L162,271.9z M149.5,262.5l5.3,2.7l-0.1-0.1c-0.5-0.8-1.3-1.5-2.2-1.9c-0.9-0.5-1.9-0.7-2.8-0.6
		L149.5,262.5z"/>
	<path class="st1" d="M159.2,285.8l-29.9-13.2c-0.9-0.4-1.9,0-2.2,0.9l0,0c-0.4,0.9,0,1.9,0.9,2.2l29.9,13.2c0.9,0.4,1.9,0,2.2-0.9
		l0,0l0,0C160.5,287.2,160.1,286.2,159.2,285.8L159.2,285.8z M154,296.1c0.9,0.4,1.2,1.4,0.9,2.2l0,0c-0.4,0.9-1.4,1.2-2.2,0.9
		l-30-13.2c-0.9-0.4-1.2-1.4-0.9-2.2l0,0c0.4-0.9,1.4-1.2,2.2-0.9L154,296.1L154,296.1z M156.6,291c0.9,0.4,1.3,1.4,0.9,2.2l0,0l0,0
		c-0.4,0.9-1.4,1.3-2.2,0.9l-29.9-13.2c-0.9-0.4-1.2-1.4-0.9-2.2l0,0c0.4-0.9,1.4-1.2,2.2-0.9L156.6,291z M161.9,280.6
		c0.8,0.4,1.2,1.4,0.9,2.2l0,0c-0.4,0.9-1.4,1.3-2.2,0.9l0,0l-29.9-13.2c-0.9-0.4-1.2-1.4-0.9-2.2l0,0c0.4-0.9,1.4-1.2,2.2-0.9
		L161.9,280.6z"/>
	<path class="st2" d="M162.2,279.9l-29.9-13.2c-1.2-0.6-2.7,0-3.2,1.2s0,2.7,1.2,3.2l29.9,13.2l0,0c1.2,0.5,2.7,0,3.2-1.2l0,0l0,0
		C163.9,281.9,163.3,280.5,162.2,279.9L162.2,279.9z M154.3,295.4c1.2,0.6,1.8,2,1.2,3.2c-0.3,0.6-0.8,1.1-1.4,1.3
		c-0.6,0.2-1.3,0.2-1.9,0l-29.9-13.3c-1.2-0.6-1.8-2-1.2-3.2s2-1.8,3.2-1.2L154.3,295.4L154.3,295.4z M123.8,283.6l29.9,13.2
		c0.2,0.1,0.4,0.3,0.5,0.5c0.2,0.5-0.1,1-0.6,1.2c-0.2,0.1-0.5,0.1-0.7,0L123,285.4c-0.2-0.1-0.4-0.3-0.5-0.5s-0.1-0.5,0-0.7
		s0.3-0.4,0.5-0.5C123.3,283.5,123.5,283.5,123.8,283.6L123.8,283.6z M156.9,290.3c0.6,0.3,1.1,0.7,1.3,1.4c0.2,0.6,0.2,1.3,0,1.9
		l0,0l0,0c-0.3,0.6-0.7,1-1.3,1.3c-0.6,0.2-1.3,0.2-1.9,0l0,0l-30-13.3l0,0l0,0c-0.6-0.3-1-0.8-1.3-1.4c-0.1-0.4-0.2-0.8-0.1-1.2
		h-0.1l0.3-0.7c0.3-0.6,0.8-1.1,1.4-1.3l0,0c0.6-0.2,1.3-0.2,1.9,0L156.9,290.3L156.9,290.3z M126.4,278.5l29.9,13.2
		c0.2,0.1,0.4,0.3,0.5,0.5s0.1,0.5,0,0.7l0,0c-0.1,0.2-0.3,0.4-0.5,0.5s-0.5,0.1-0.7,0l0,0l-29.9-13.2l0,0c-0.2-0.1-0.4-0.3-0.5-0.5
		s-0.1-0.5,0-0.7l0.1-0.2c0.1-0.2,0.3-0.3,0.5-0.4l0,0C126,278.4,126.3,278.4,126.4,278.5L126.4,278.5z M159.6,285.1
		c0.6,0.3,1.1,0.8,1.3,1.4s0.2,1.3,0,1.9l0,0l0,0c-0.3,0.6-0.8,1.1-1.4,1.3c-0.6,0.3-1.3,0.3-1.9,0l0,0l-29.9-13.2
		c-1.2-0.6-1.8-2-1.3-3.2c0.3-0.6,0.8-1.1,1.4-1.3c0.6-0.2,1.3-0.2,1.9,0L159.6,285.1L159.6,285.1z M129.1,273.3l29.9,13.2
		c0.2,0.1,0.4,0.3,0.5,0.5s0.1,0.5,0,0.7l0,0c-0.1,0.2-0.3,0.4-0.5,0.5s-0.5,0.1-0.7,0l0,0l-30-13.2c-0.2-0.1-0.4-0.3-0.5-0.5
		s-0.1-0.5,0-0.7s0.3-0.4,0.5-0.5C128.6,273.1,128.8,273.1,129.1,273.3L129.1,273.3z M131.7,268.1l29.9,13.2
		c0.2,0.1,0.4,0.3,0.5,0.5s0.1,0.5,0,0.7l0,0c-0.1,0.2-0.3,0.4-0.5,0.5s-0.5,0.1-0.7,0l0,0l-30-13.2c-0.2-0.1-0.4-0.3-0.5-0.5
		c-0.2-0.5,0-1,0.5-1.2c0,0,0,0,0.1,0C131.2,268,131.4,268,131.7,268.1L131.7,268.1z"/>
	<path class="st3" d="M153.3,303.4c1.4,1.8,1.6,4.2,0.6,6.1c-5.1,10.1-4.5,17.2-2.7,27.8c1.9,11.1,2.2,18.8-3.1,29.2
		c-10.7,21.1-36.4,29.5-57.5,18.9c-21.1-10.7-29.5-36.4-18.9-57.5c5.3-10.4,11.7-14.7,21.7-19.8c9.6-4.9,15.7-8.6,20.8-18.7
		c1-2,3.1-3.2,5.3-3.1L153.3,303.4z"/>
	<path class="st4" d="M137.4,295.6c-6.7,13.9-14.5,28.6-19.1,43.4c-1.1-0.6-2.3-1.1-3.6-1.2c-0.8-0.8-1.7-1.5-2.7-2
		c9.4-12.1,16.5-27.6,23.3-41.2l-1.5-0.7c-6.8,13.7-14,29.3-23.4,41.4l-0.6-0.1c-2-0.4-4-0.1-5.8,0.9l0,0c-0.2,0.1-0.5,0.3-0.7,0.5
		s-0.3,0.4-0.5,0.7c-0.3,0.6-0.4,1.3-0.2,2l0,0c0.2,0.7,0.7,1.2,1.3,1.5c1.5,0.8,3.4,0.5,6.8-3.5c0.6,0.2,1.1,0.5,1.6,0.9
		c-1,0.3-1.9,0.8-2.6,1.6c-0.6,0.6-1,1.4-1.3,2.2c-0.3,0.8-0.3,1.6-0.2,2.4c0.5,1.9,2.4,3.1,4.3,2.7c0.2,0,0.4-0.1,0.6-0.2
		c0.7-0.4,1.4-0.9,1.8-1.6c0.5-0.7,0.8-1.5,1-2.4l0,0c0.2-1,0.1-2-0.2-3c0.7,0.2,1.4,0.5,2,0.9c-1.3,5-0.6,6.6,0.9,7.4
		c0.6,0.3,1.3,0.4,2,0.2l0,0c0.7-0.2,1.2-0.7,1.5-1.3c0.1-0.2,0.2-0.5,0.2-0.8s0-0.5,0-0.8l0,0c-0.3-2-1.3-3.8-2.7-5.2l-0.1-0.1
		c4.6-14.9,12.4-29.7,19.2-43.7L137.4,295.6L137.4,295.6z M119.5,346.6c-0.8-0.4-1.2-1.5-0.3-4.8c0.9,1,1.6,2.3,1.8,3.7l0,0
		c0,0.1,0,0.2,0,0.3c0,0.1-0.1,0.2-0.1,0.3c-0.1,0.2-0.3,0.4-0.6,0.5l0,0C120.1,346.8,119.8,346.8,119.5,346.6L119.5,346.6z
		 M111.1,340.7c0.7-0.8,1.7-1.3,2.8-1.3c0.6,0.9,0.8,2,0.6,3l0,0c-0.1,0.6-0.3,1.2-0.7,1.7c-0.3,0.4-0.7,0.8-1.2,1
		c-1,0.4-2.2-0.1-2.6-1.2c0-0.1,0-0.1-0.1-0.2c-0.1-0.5,0-1,0.1-1.5C110.4,341.7,110.7,341.1,111.1,340.7L111.1,340.7z M104.8,337.4
		c1.3-0.7,2.9-1,4.4-0.7c-2.3,2.7-3.6,3-4.4,2.5c-0.2-0.1-0.4-0.3-0.5-0.6l0,0c-0.1-0.3-0.1-0.5,0.1-0.8c0-0.1,0.1-0.2,0.2-0.2
		C104.6,337.5,104.7,337.4,104.8,337.4L104.8,337.4z"/>
	<path class="st5" d="M153.9,312.8l-42.2-21.3l18.7-37c7.9-15.7,50.1,5.6,42.2,21.3L153.9,312.8z"/>
	
		<rect x="140.3" y="288.3" transform="matrix(0.4512 -0.8924 0.8924 0.4512 -171.0126 300.1491)" class="st6" width="36.5" height="1.6"/>
	<polygon class="st5" points="159.7,255 155.3,252.7 313.3,-60.1 319,-60.1 	"/>
	<polygon class="st5" points="160.4,255.7 153.8,252.4 162.8,236.5 167.9,239.1 	"/>
</g>
<g id="Lamp2">
	<path class="st1" d="M241.9,294.6c0.7-1.2,2.9-1.7,5.1-1s3.7,2.4,3.5,3.8l4.8,1.6c1.1,0.4,1.7,1.5,1.3,2.6l-0.2,0.7l0.7,0.2
		c1.8,0.6,2.8,2.6,2.2,4.4l-6.4,19.4l1.5,2.1l-1.6,4.9L218.6,322l1.1-3.4l2.5-0.8l6.9-20.8c0.6-1.8,2.6-2.8,4.4-2.2l0.7,0.2l0.2-0.7
		c0.4-1.1,1.5-1.7,2.6-1.3L241.9,294.6z"/>
	<path class="st2" d="M222.9,318l6.9-20.8c0.2-0.7,0.7-1.2,1.4-1.5c0.6-0.3,1.4-0.4,2.1-0.2l23.7,7.9c1.4,0.5,2.2,2,1.7,3.4l0,0
		l-6.4,19.4l-0.1,0.4l0.2,0.3l1.3,1.8l-1.3,3.8l-32.8-10.9l0.8-2.3l2.1-0.7l0.4-0.1L222.9,318L222.9,318z M235.2,294.6l20.8,6.9l0,0
		c0.1-0.3,0.1-0.7-0.1-1c-0.2-0.3-0.4-0.5-0.8-0.7l-18.3-6.1c-0.3-0.1-0.7-0.1-1,0.1l0,0C235.5,294,235.3,294.2,235.2,294.6
		L235.2,294.6L235.2,294.6z M257.3,301.9L257.3,301.9c0.2-0.7,0.2-1.5-0.2-2.1c-0.3-0.7-0.9-1.2-1.6-1.4l-4.4-1.5
		c-0.1-0.6-0.4-1.2-0.9-1.7c-1.7-1.9-4.3-2.8-6.9-2.3c-0.6,0.1-1.2,0.4-1.7,0.9l-4.4-1.5c-0.7-0.2-1.5-0.2-2.1,0.2l0,0
		c-0.7,0.3-1.2,0.9-1.4,1.6l0,0l0,0c-2.2-0.7-4.6,0.5-5.3,2.7l-6.8,20.5l-2.1,0.7l-0.4,0.1l-0.1,0.4l-1.1,3.4l-0.2,0.7l0.7,0.2
		l34.2,11.4l0.7,0.2l0.2-0.7l1.6-4.9l0.1-0.4L255,328l-1.3-1.8l6.3-19c0.4-1.1,0.3-2.2-0.2-3.2S258.4,302.3,257.3,301.9L257.3,301.9
		z M243.6,294.4l5.6,1.9l-0.1-0.1c-1.4-1.5-3.4-2.1-5.4-1.8H243.6z"/>
	<path class="st1" d="M256.7,316l-31.5-8.7c-0.9-0.2-1.8,0.3-2.1,1.2l0,0l0,0c-0.2,0.9,0.3,1.8,1.2,2.1l31.5,8.7
		c0.9,0.2,1.8-0.3,2.1-1.2l0,0C258.1,317.2,257.6,316.3,256.7,316L256.7,316z M253,327c0.9,0.3,1.4,1.2,1.2,2.1l0,0
		c-0.2,0.9-1.2,1.4-2.1,1.2l0,0l-31.5-8.7c-0.9-0.3-1.4-1.2-1.2-2.1l0,0c0.3-0.9,1.2-1.4,2.1-1.2L253,327L253,327z M254.8,321.5
		c0.9,0.2,1.4,1.2,1.2,2.1l0,0l0,0c-0.3,0.9-1.2,1.4-2.1,1.2l-31.5-8.7c-0.9-0.2-1.4-1.2-1.2-2.1l0,0l0,0c0.3-0.9,1.2-1.4,2.1-1.2
		L254.8,321.5z M258.5,310.5c0.9,0.3,1.4,1.2,1.2,2.1l0,0c-0.3,0.9-1.2,1.4-2.1,1.2l-31.5-8.7c-0.9-0.3-1.4-1.2-1.2-2.1l0,0
		c0.3-0.9,1.2-1.4,2.1-1.2L258.5,310.5z"/>
	<path class="st2" d="M258.7,309.8l-31.5-8.7c-1.3-0.3-2.6,0.4-3,1.7c-0.3,1.3,0.4,2.6,1.7,3l31.5,8.7l0,0c1.3,0.3,2.6-0.4,3-1.7
		l0,0l0,0c0.2-0.6,0.1-1.3-0.2-1.9C259.8,310.4,259.3,310,258.7,309.8L258.7,309.8z M253.2,326.3l-31.5-8.7
		c-0.6-0.2-1.3-0.1-1.9,0.2c-1.2,0.7-1.6,2.2-0.9,3.4c0.3,0.6,0.9,1,1.5,1.2l31.5,8.7c1.3,0.4,2.7-0.3,3.1-1.6s-0.3-2.7-1.6-3.1
		C253.3,326.3,253.3,326.3,253.2,326.3L253.2,326.3z M221.3,319.1l31.5,8.7c0.5,0.2,0.8,0.7,0.7,1.2c-0.1,0.2-0.2,0.4-0.4,0.6
		c-0.2,0.1-0.5,0.2-0.7,0.1l-31.5-8.7c-0.2-0.1-0.4-0.2-0.6-0.5c-0.1-0.2-0.2-0.5-0.1-0.7C220.3,319.2,220.8,319,221.3,319.1
		L221.3,319.1z M255,320.8c1.3,0.4,2.1,1.7,1.7,3l0,0l0,0c-0.4,1.3-1.7,2-3,1.7l0,0l-31.5-8.7l0,0c-0.6-0.2-1.1-0.6-1.4-1.1
		c-0.2-0.3-0.3-0.7-0.3-1.1h-0.1l0.2-0.7c0.2-0.6,0.6-1.2,1.1-1.5l0,0c0.6-0.3,1.2-0.4,1.9-0.2L255,320.8L255,320.8z M223.1,313.6
		l31.5,8.7c0.2,0.1,0.4,0.2,0.6,0.4c0.1,0.2,0.2,0.5,0.1,0.7l0,0c-0.1,0.5-0.6,0.8-1.1,0.7l0,0l-31.5-8.7l0,0
		c-0.5-0.1-0.8-0.6-0.7-1.1l0.1-0.2c0.1-0.2,0.2-0.3,0.4-0.4l0,0C222.7,313.5,222.9,313.5,223.1,313.6L223.1,313.6z M256.8,315.3
		c1.3,0.4,2.1,1.7,1.7,3l0,0l0,0c-0.2,0.6-0.6,1.1-1.1,1.4c-0.6,0.3-1.2,0.4-1.9,0.2l0,0l-31.5-8.7c-1.3-0.3-2.2-1.6-1.9-2.9
		s1.6-2.2,2.9-1.9c0.1,0,0.1,0,0.2,0.1L256.8,315.3L256.8,315.3z M224.9,308.1l31.5,8.7c0.2,0.1,0.4,0.2,0.6,0.5
		c0.1,0.2,0.2,0.5,0.1,0.7l0,0c-0.1,0.2-0.2,0.4-0.4,0.6c-0.2,0.1-0.5,0.2-0.7,0.1l0,0l-31.5-8.7c-0.2-0.1-0.4-0.2-0.6-0.5
		c-0.3-0.5-0.1-1,0.4-1.3C224.4,308,224.7,308,224.9,308.1L224.9,308.1z M226.7,302.6l31.5,8.7c0.2,0.1,0.4,0.2,0.6,0.5
		c0.1,0.2,0.2,0.5,0.1,0.7l0,0c-0.1,0.5-0.6,0.8-1.1,0.7l0,0l-31.5-8.7c-0.2-0.1-0.4-0.2-0.6-0.4c-0.1-0.2-0.2-0.5-0.1-0.7
		c0.1-0.2,0.2-0.5,0.4-0.6C226.3,302.5,226.5,302.5,226.7,302.6L226.7,302.6z"/>
	<path class="st4" d="M236.5,329c-4.6,14.7-10.2,30.4-12.5,45.7c-1.2-0.5-2.5-0.7-3.7-0.6c-0.9-0.7-1.9-1.3-3-1.6
		c7.5-13.4,12.3-29.8,17-44.2l-1.6-0.5c-4.7,14.5-9.5,31-17.1,44.4H215c-2-0.1-4,0.5-5.6,1.7l0,0c-0.2,0.2-0.4,0.3-0.6,0.6
		c-0.2,0.2-0.3,0.5-0.4,0.7c-0.2,0.7-0.2,1.4,0.1,2l0,0c0.3,0.6,0.9,1.1,1.5,1.3c1.6,0.5,3.5,0,6.2-4.5c0.6,0.1,1.2,0.4,1.7,0.6
		c-0.9,0.5-1.7,1.1-2.3,2c-0.5,0.7-0.8,1.5-1,2.4c-0.2,0.8-0.1,1.7,0.2,2.4c0.4,1,1.2,1.7,2.2,2.1s2.1,0.2,3-0.3
		c0.7-0.5,1.2-1.1,1.6-1.8c0.4-0.8,0.6-1.6,0.6-2.5l0,0c0-1-0.2-2-0.7-2.9c0.7,0.1,1.4,0.3,2.1,0.6c-0.6,5.1,0.4,6.7,2,7.2
		c0.7,0.2,1.4,0.2,2-0.1l0,0c0.6-0.3,1.1-0.9,1.3-1.5c0.1-0.3,0.1-0.5,0.1-0.8s0-0.5-0.1-0.8l0,0c-0.6-1.9-1.8-3.6-3.5-4.7l-0.1-0.1
		c2.3-15.4,7.9-31.2,12.6-46L236.5,329L236.5,329z M226.3,382c-0.9-0.3-1.4-1.3-1-4.7c1.1,0.9,1.9,2.1,2.3,3.4l0,0
		c0,0.1,0,0.2,0,0.3c0,0.1,0,0.2-0.1,0.3c-0.1,0.3-0.3,0.5-0.5,0.6l0,0C226.8,382,226.5,382.1,226.3,382L226.3,382z M217.1,377.4
		c0.6-0.9,1.5-1.5,2.6-1.7c0.7,0.8,1.1,1.8,1,2.9l0,0c0,0.6-0.2,1.2-0.4,1.8c-0.2,0.5-0.6,0.9-1,1.2c-0.5,0.3-1.1,0.4-1.6,0.2
		c-0.5-0.2-1-0.6-1.2-1.1s-0.2-1-0.1-1.5C216.5,378.5,216.7,377.9,217.1,377.4L217.1,377.4z M210.4,375c1.2-0.9,2.7-1.3,4.2-1.3
		c-1.9,3-3.1,3.5-4,3.2c-0.3-0.1-0.5-0.3-0.6-0.5l0,0c-0.1-0.2-0.1-0.5-0.1-0.8c0-0.1,0.1-0.2,0.1-0.3
		C210.2,375.2,210.2,375.2,210.4,375L210.4,375z"/>
	
		<rect x="238.2" y="318.6" transform="matrix(0.3156 -0.9489 0.9489 0.3156 -127.5692 461.9391)" class="st6" width="36.5" height="1.6"/>
	<polygon class="st5" points="251.9,285.6 248,284.3 342.5,0 346.9,0 	"/>
	<polygon class="st5" points="253.4,286.1 246.4,283.8 252.9,266.7 258.4,268.5 	"/>
	<path class="st7" d="M217.2,320.3c-2.2,0.2-4.1,1.7-4.8,3.9c-3.6,10.7-9.1,15.3-18,21.4c-9.2,6.4-14.9,11.6-18.7,22.6
		c-7.3,22.5,5.1,46.6,27.6,53.9c22,7.1,45.7-4.5,53.5-26.3c3.8-11,2.4-18.6-1-29.3c-3.3-10.3-4.8-17.3-1.2-27.9
		c0.7-2.1,0.1-4.5-1.5-6L217.2,320.3z"/>
	<path class="st8" d="M202.5,419.5c20.9,7.6,44.1-3.1,51.7-24c4.3-11.7,1.9-19.9-0.5-28c-2.5-8.5-5-16.9-0.5-29.3
		c0.6-1.7-0.3-3.6-2-4.2l-30.9-11.3c-1.7-0.6-3.6,0.3-4.2,2c-4.5,12.4-11.9,17.2-19.2,22.1c-7.1,4.7-14.2,9.4-18.4,21.1
		C170.8,388.8,181.6,411.9,202.5,419.5z"/>
	<path class="st9" d="M235.2,326.3c-5.5,14.4-11,30.1-18.6,43.6c1.2,0.4,2.4,1,3.3,1.8c1.1,0,2.3,0.2,3.4,0.6
		c2.4-15.1,8.9-30.9,14.2-45.2l1.5,0.6c-5.3,14.3-11.8,30.2-14.2,45.4l0.5,0.3c1.6,1.2,2.8,2.9,3.3,4.8l0,0c0.3,1.2-0.3,2.5-1.4,3.1
		l0,0c-0.6,0.3-1.4,0.3-2,0.1c-1.6-0.6-2.7-2.2-2.1-7.4c-0.6-0.2-1.1-0.4-1.7-0.5c0.5,0.9,0.7,1.9,0.6,3c-0.1,0.9-0.3,1.7-0.7,2.5
		c-0.4,0.7-1,1.4-1.7,1.8c-1.7,1-3.9,0.4-4.9-1.3c-0.1-0.2-0.2-0.4-0.3-0.5c-0.3-0.8-0.3-1.6-0.1-2.4s0.5-1.6,1.1-2.3l0,0
		c0.6-0.8,1.4-1.5,2.4-1.9c-0.6-0.4-1.3-0.6-2-0.8c-2.7,4.4-4.4,5-6,4.4c-0.7-0.2-1.2-0.7-1.5-1.4l0,0c-0.3-0.6-0.3-1.4-0.1-2
		c0.2-0.5,0.5-1,1-1.3l0,0c1.7-1.2,3.7-1.7,5.7-1.5l0.1,0.1c7.8-13.5,13.2-29.4,18.8-43.8L235.2,326.3z M210.3,374.2
		c0.8,0.3,1.9-0.2,3.7-3c-1.4,0-2.8,0.5-3.9,1.3l0,0c-0.1,0.1-0.2,0.1-0.2,0.2c-0.1,0.1-0.1,0.2-0.2,0.3c-0.1,0.3-0.1,0.5,0,0.8l0,0
		C209.8,373.9,210,374.1,210.3,374.2L210.3,374.2z M220.3,376.3c0.7-0.9,0.6-2.1-0.3-2.8c-0.9-0.7-2.1-0.6-2.8,0.3
		c-0.3,0.3-0.4,0.8-0.4,1.2l0,0c-0.4,0.5-0.6,1.1-0.8,1.7c-0.1,0.5-0.1,1,0.1,1.5c0.2,0.5,0.6,0.9,1.2,1.1c0.5,0.2,1.1,0.2,1.6-0.1
		c0.4-0.3,0.8-0.7,1-1.1C220.1,377.6,220.3,377,220.3,376.3L220.3,376.3z M227.1,378.7c-0.4-1.5-1.3-2.8-2.5-3.7
		c-0.4,3.5,0.3,4.6,1.1,4.9c0.3,0.1,0.5,0.1,0.8,0l0,0c0.2-0.1,0.4-0.3,0.5-0.6c0-0.1,0.1-0.2,0.1-0.3
		C227.1,378.9,227.1,378.8,227.1,378.7L227.1,378.7z"/>
	<path class="st10" d="M192.5,400.6c4.4-1.6-2.7-21.2-7.1-19.6S188.1,402.2,192.5,400.6z"/>
	<path class="st10" d="M184.3,376.4c3.2,1.1,7.9-12.9,4.8-14C186,361.4,181.1,375.3,184.3,376.4z"/>
	<path class="st5" d="M255.3,343.5l-44.9-14.9l13.1-39.4c5.6-16.7,50.4-1.8,44.9,14.9L255.3,343.5z"/>
</g>
<g id="Lamp3">
	<path class="st1" d="M407.7,317.3c-0.3-1.4-2.2-2.5-4.5-2.5s-4.2,1.1-4.5,2.5h-5.1c-1.1,0-2.1,0.9-2.1,2.1v0.8h-0.8
		c-1.9,0-3.4,1.5-3.5,3.5V344l-2.1,1.5v5.1h36.1V347l-2.1-1.5v-21.9c0-1.9-1.5-3.4-3.5-3.5h-0.8v-0.8c0-1.1-0.9-2.1-2.1-2.1
		L407.7,317.3L407.7,317.3z"/>
	<path class="st2" d="M418.4,345.5v-21.9c0-1.5-1.2-2.7-2.7-2.7h-24.9c-1.5,0-2.7,1.2-2.7,2.7v20.8l-0.3,0.2l-1.8,1.3v4h34.6v-2.5
		l-1.8-1.3l-0.3-0.2v-0.4H418.4z M414.1,319.3L414.1,319.3c0-0.3-0.1-0.7-0.4-0.9l0,0c-0.2-0.2-0.5-0.4-0.9-0.4h-19.3
		c-0.3,0-0.7,0.1-0.9,0.4c-0.2,0.2-0.4,0.6-0.4,0.9H414.1L414.1,319.3z M390.8,319.3L390.8,319.3c0-1.6,1.3-2.8,2.8-2.8h4.6
		c0.3-0.6,0.8-1,1.4-1.4c2.2-1.3,5-1.3,7.2,0c0.6,0.3,1,0.8,1.4,1.4h4.7c0.8,0,1.5,0.3,2,0.8l0,0c0.5,0.5,0.8,1.3,0.8,2l0,0
		c2.3,0,4.2,1.9,4.2,4.2V345l1.8,1.3l0.3,0.2v4.7h-37.6v-6.3l0.3-0.2l1.8-1.3v-20C386.5,321.3,388.4,319.4,390.8,319.3L390.8,319.3z
		 M406.2,316.5l-0.1-0.1c-1.8-0.9-3.9-0.9-5.6,0l-0.1,0.1H406.2z"/>
	<path class="st1" d="M387,332.9l32.6,1.7c0.9,0.1,1.7,0.9,1.6,1.8l0,0c0,0.9-0.8,1.7-1.8,1.6l0,0l-32.6-1.7
		c-0.9-0.1-1.7-0.9-1.6-1.8l0,0C385.2,333.6,386,332.9,387,332.9z M387,344.5l32.6,1.7c0.9,0.1,1.7,0.9,1.6,1.8l0,0
		c0,0.9-0.8,1.7-1.8,1.6l0,0l-32.6-1.7c-0.9-0.1-1.7-0.9-1.6-1.8l0,0C385.2,345.2,386,344.5,387,344.5z M387,338.7l32.6,1.7
		c0.9,0.1,1.7,0.9,1.6,1.8l0,0c0,0.9-0.8,1.7-1.8,1.6l0,0l-32.6-1.7c-0.9-0.1-1.7-0.9-1.6-1.8l0,0C385.2,339.4,386,338.7,387,338.7z
		 M387,327.1l32.6,1.7c0.9,0.1,1.7,0.9,1.6,1.8l0,0c0,0.9-0.8,1.7-1.8,1.6l0,0l-32.6-1.7c-0.9-0.1-1.7-0.9-1.6-1.8l0,0
		C385.2,327.8,386,327.1,387,327.1L387,327.1z"/>
	<path class="st2" d="M387,326.4l32.6,1.7c0.7,0,1.3,0.3,1.7,0.8c0.9,1,0.8,2.6-0.2,3.5c-0.5,0.4-1.2,0.7-1.8,0.6l-32.6-1.7l0,0
		c-1.3-0.1-2.4-1.2-2.3-2.5l0,0l0,0c0-0.6,0.3-1.3,0.8-1.7C385.7,326.6,386.4,326.4,387,326.4L387,326.4z M387,343.8l32.6,1.7
		c0.7,0,1.3,0.3,1.7,0.8c0.9,1,0.8,2.5-0.2,3.4l0,0c-0.5,0.4-1.1,0.7-1.8,0.6l-32.6-1.7c-0.7,0-1.3-0.3-1.7-0.8
		c-0.9-1-0.8-2.6,0.2-3.5l0,0C385.7,344,386.4,343.7,387,343.8z M419.6,347l-32.6-1.7c-0.5,0-1,0.4-1,0.9l0,0c0,0.3,0.1,0.5,0.2,0.7
		c0.2,0.2,0.4,0.3,0.6,0.3l32.6,1.7c0.3,0,0.5-0.1,0.7-0.2c0.2-0.2,0.3-0.4,0.3-0.6s-0.1-0.5-0.2-0.7C420,347.1,419.8,347,419.6,347
		L419.6,347z M387,338c-0.7,0-1.3,0.2-1.8,0.6s-0.8,1-0.8,1.7l0,0l0,0c0,1.3,1,2.5,2.3,2.5l0,0l32.6,1.7l0,0c0.6,0,1.3-0.2,1.7-0.6
		c0.3-0.3,0.5-0.6,0.7-1h0.1v-0.7c0-0.6-0.2-1.3-0.6-1.8l0,0c-0.4-0.5-1-0.8-1.7-0.8L387,338L387,338z M419.6,341.2
		c0.2,0,0.5,0.1,0.6,0.3l0,0c0.1,0.2,0.2,0.3,0.2,0.5v0.2c0,0.2-0.1,0.5-0.3,0.6c-0.2,0.2-0.4,0.3-0.7,0.2l0,0l-32.6-1.8l0,0
		c-0.2,0-0.5-0.1-0.6-0.3c-0.2-0.2-0.3-0.4-0.2-0.7l0,0c0-0.2,0.1-0.5,0.3-0.6c0.2-0.2,0.4-0.2,0.7-0.2L419.6,341.2L419.6,341.2z
		 M387,332.2c-0.7,0-1.3,0.2-1.8,0.6s-0.8,1-0.8,1.7l0,0l0,0c0,1.3,1,2.5,2.3,2.5l0,0l32.6,1.7c1.4,0.1,2.5-1,2.6-2.3
		c0-0.6-0.2-1.3-0.6-1.8s-1-0.8-1.7-0.8L387,332.2L387,332.2z M419.6,335.5c0.2,0,0.5,0.1,0.6,0.3c0.2,0.2,0.3,0.4,0.2,0.7
		c0,0.2-0.1,0.5-0.3,0.6c-0.2,0.2-0.4,0.3-0.7,0.2l-32.6-1.8l0,0c-0.2,0-0.5-0.1-0.6-0.3c-0.2-0.2-0.3-0.4-0.2-0.7l0,0
		c0-0.2,0.1-0.5,0.3-0.6c0.2-0.2,0.4-0.2,0.7-0.2L419.6,335.5L419.6,335.5z M419.6,329.7L387,328c-0.2,0-0.5,0.1-0.7,0.2
		c-0.2,0.2-0.3,0.4-0.3,0.6l0,0c0,0.2,0.1,0.5,0.2,0.7c0.2,0.2,0.4,0.3,0.6,0.3l0,0l32.6,1.7c0.2,0,0.5-0.1,0.7-0.2
		c0.2-0.2,0.3-0.4,0.3-0.6s-0.1-0.5-0.2-0.7C420,329.7,419.8,329.6,419.6,329.7L419.6,329.7z"/>
	<path class="st7" d="M384.3,351.4c-2,0.9-3.3,3-3.3,5.2c0,11.3-3.7,17.4-10.1,26.1c-6.7,9-10.4,15.8-10.4,27.4
		c0.4,23.6,19.8,42.5,43.4,42.1c23.1-0.4,41.8-19,42.1-42.1c0-11.7-3.8-18.4-10.4-27.4c-6.4-8.7-10.1-14.8-10.1-26.1
		c0-2.2-1.3-4.3-3.3-5.2H384.3z"/>
	<path class="st8" d="M403.2,450.4c22.3,0,40.3-18,40.3-40.3c0-12.5-5-19.3-10.1-26.1c-5.2-7.1-10.5-14.2-10.5-27.3
		c0-1.8-1.5-3.3-3.3-3.3h-32.9c-1.8,0-3.3,1.5-3.3,3.3c0,13.1-5.2,20.2-10.5,27.3c-5,6.8-10.1,13.7-10.1,26.1
		C362.9,432.3,380.9,450.4,403.2,450.4z"/>
	<path class="st9" d="M402,351.6c-0.3,15.4,0,32.1-2.5,47.3c1.3-0.1,2.5,0.1,3.7,0.6c1.1-0.4,2.2-0.6,3.4-0.6
		c-2.9-15-2.2-32.1-2.2-47.3h1.6c-0.1,15.3-0.8,32.4,2.2,47.5l0.5,0.1c1.9,0.5,3.6,1.7,4.8,3.4l0,0c0.7,1.1,0.6,2.5-0.3,3.4l0,0
		c-0.5,0.5-1.2,0.8-1.9,0.8c-1.7,0-3.3-1.1-4.5-6.2c-0.6,0-1.2,0-1.8,0.1c0.7,0.7,1.3,1.6,1.6,2.6c0.2,0.8,0.3,1.7,0.2,2.5
		c-0.1,0.8-0.4,1.6-0.9,2.2c-1.3,1.5-3.5,1.7-5,0.4c-0.2-0.1-0.3-0.3-0.4-0.4c-0.5-0.6-0.8-1.4-0.9-2.2c-0.1-0.9,0-1.7,0.2-2.5l0,0
		c0.3-1,0.8-1.9,1.6-2.6c-0.7-0.1-1.4-0.1-2.2-0.1c-1.1,5-2.5,6.2-4.2,6.2c-0.7,0-1.4-0.3-1.9-0.8l0,0c-0.5-0.5-0.8-1.2-0.8-1.9
		c0-0.5,0.2-1.1,0.5-1.5l0,0c1.2-1.6,2.9-2.8,4.8-3.4h0.1c2.6-15.3,2.3-32.1,2.6-47.6H402z M395,405.2c0.9,0,1.7-0.8,2.4-4.1
		c-1.3,0.5-2.5,1.4-3.3,2.5l0,0c-0.1,0.1-0.1,0.2-0.1,0.3c0,0.1,0,0.2,0,0.3c0,0.3,0.1,0.5,0.3,0.7l0,0
		C394.5,405,394.7,405.2,395,405.2L395,405.2z M405.1,403.7c0.4-1-0.2-2.2-1.3-2.5c-1-0.4-2.2,0.2-2.5,1.3c-0.1,0.4-0.1,0.9,0,1.3
		l0,0c-0.2,0.6-0.2,1.2-0.2,1.9c0.1,0.5,0.3,1,0.6,1.4c0.4,0.4,0.9,0.7,1.5,0.7s1.1-0.2,1.5-0.7c0.3-0.4,0.5-0.9,0.6-1.4
		C405.4,405,405.3,404.3,405.1,403.7L405.1,403.7z M412.3,403.6c-0.9-1.3-2.1-2.2-3.6-2.6c0.9,3.4,1.8,4.2,2.8,4.2
		c0.3,0,0.5-0.1,0.7-0.3l0,0c0.2-0.2,0.3-0.4,0.3-0.7c0-0.1,0-0.2,0-0.3C412.4,403.7,412.3,403.7,412.3,403.6L412.3,403.6z"/>
	<path class="st10" d="M387.3,436c3.6-3-9.8-19-13.4-16S383.7,439,387.3,436z"/>
	<path class="st10" d="M371.3,416.1c3.3-0.1,3-14.9-0.3-14.8S368,416.2,371.3,416.1z"/>
	<path class="st5" d="M379.5,359.4h47.3V318c0-17.6-47.3-17.6-47.3,0V359.4z"/>
	<rect x="385.2" y="318" class="st6" width="1.6" height="36.5"/>
	<rect x="401.1" y="-2.7" class="st11" width="4.1" height="308.3"/>
	<polygon class="st5" points="399.5,305.6 406.9,305.6 406.1,287.3 400.3,287.3 	"/>
</g>
<g id="Lamp4">
	<path class="st1" d="M502,317.9c-0.3-1.4-2.2-2.5-4.5-2.5s-4.2,1.1-4.5,2.5h-5.1c-1.1,0-2.1,0.9-2.1,2.1v0.8H485
		c-1.9,0-3.4,1.5-3.5,3.5v20.4l-2.1,1.5v5.1h36.1v-3.6l-2.2-1.5v-21.9c0-1.9-1.5-3.4-3.5-3.5H509V320c0-1.1-0.9-2.1-2.1-2.1l0,0H502
		z"/>
	<path class="st2" d="M512.6,346.1v-21.9c0-1.5-1.2-2.7-2.7-2.7H485c-1.5,0-2.7,1.2-2.7,2.7V345l-0.3,0.2l-1.8,1.3v4h34.6V348
		l-1.8-1.3l-0.3-0.2v-0.4H512.6z M508.3,320L508.3,320c0-0.3-0.1-0.7-0.4-0.9l0,0c-0.2-0.2-0.6-0.4-0.9-0.4h-19.2
		c-0.3,0-0.7,0.1-0.9,0.4c-0.2,0.2-0.4,0.6-0.4,0.9H508.3L508.3,320z M485,320L485,320c0-1.6,1.3-2.8,2.8-2.8h4.6
		c0.3-0.6,0.8-1,1.4-1.4c2.2-1.3,5-1.3,7.2,0c0.6,0.3,1,0.8,1.4,1.4h4.6c0.8,0,1.5,0.3,2,0.8l0,0c0.5,0.5,0.8,1.2,0.8,2l0,0
		c2.3,0,4.2,1.9,4.2,4.2v21.5l1.8,1.3l0.3,0.2v4.7h-37.5v-6.3l0.3-0.2l1.8-1.3v-20C480.8,321.9,482.7,320,485,320L485,320z
		 M500.4,317.1l-0.1-0.1c-1.8-0.9-3.9-0.9-5.6,0l-0.1,0.1H500.4z"/>
	<path class="st1" d="M481.2,333.6l32.6,1.7c0.9,0.1,1.7,0.9,1.6,1.8l0,0c0,0.9-0.8,1.7-1.8,1.6l0,0L481,337
		c-0.9-0.1-1.7-0.9-1.6-1.8l0,0C479.5,334.2,480.3,333.5,481.2,333.6z M481.2,345.2l32.6,1.7c0.9,0.1,1.7,0.9,1.6,1.8l0,0
		c0,0.9-0.8,1.7-1.8,1.6l0,0l-32.6-1.7c-0.9-0.1-1.7-0.9-1.6-1.8l0,0C479.5,345.8,480.3,345.1,481.2,345.2z M481.2,339.4l32.6,1.7
		c0.9,0.1,1.7,0.9,1.6,1.8l0,0c0,0.9-0.8,1.7-1.8,1.6l0,0l-32.6-1.7c-0.9-0.1-1.7-0.9-1.6-1.8l0,0
		C479.5,340,480.3,339.3,481.2,339.4z M481.2,327.8l32.6,1.7c0.9,0.1,1.7,0.9,1.6,1.8l0,0c0,0.9-0.8,1.7-1.8,1.6l0,0l-32.6-1.7
		c-0.9-0.1-1.7-0.9-1.6-1.8l0,0C479.5,328.4,480.3,327.7,481.2,327.8L481.2,327.8z"/>
	<path class="st2" d="M481.3,327l32.6,1.7c0.7,0,1.3,0.3,1.7,0.8s0.7,1.1,0.6,1.8c-0.1,1.4-1.2,2.4-2.6,2.3l0,0l-32.6-1.7l0,0
		c-0.6,0-1.3-0.3-1.7-0.8c-0.4-0.5-0.7-1.1-0.6-1.7l0,0l0,0C478.8,328,479.9,327,481.3,327L481.3,327z M481.3,344.4l32.6,1.7
		c0.7,0,1.3,0.3,1.7,0.8c0.9,1,0.8,2.6-0.2,3.5c-0.5,0.4-1.2,0.7-1.8,0.6l-32.6-1.7c-1.4-0.1-2.4-1.3-2.2-2.7
		C478.8,345.4,479.9,344.4,481.3,344.4L481.3,344.4z M513.8,347.7l-32.6-1.7c-0.5,0-1,0.4-1,0.9l0,0c0,0.3,0.1,0.5,0.2,0.7
		c0.2,0.2,0.4,0.3,0.6,0.3l32.6,1.7c0.3,0,0.5-0.1,0.7-0.2c0.2-0.2,0.3-0.4,0.3-0.6s-0.1-0.5-0.2-0.7
		C514.3,347.8,514.1,347.7,513.8,347.7L513.8,347.7z M481.3,338.7c-1.4-0.1-2.5,1-2.6,2.3l0,0l0,0c0,1.3,1,2.5,2.3,2.5l0,0l32.6,1.7
		l0,0c1.1,0,2-0.6,2.4-1.6h0.1v-0.7c0-0.6-0.2-1.3-0.6-1.8l0,0c-0.4-0.5-1-0.8-1.7-0.8L481.3,338.7z M513.8,341.9
		c0.2,0,0.5,0.1,0.7,0.3l0,0c0.1,0.2,0.2,0.3,0.2,0.5v0.2c0,0.2-0.1,0.5-0.3,0.6c-0.2,0.2-0.4,0.3-0.7,0.2l0,0l-32.6-1.7l0,0
		c-0.2,0-0.5-0.1-0.6-0.3c-0.2-0.2-0.2-0.4-0.2-0.7l0,0c0-0.2,0.1-0.5,0.3-0.6c0.2-0.2,0.4-0.2,0.7-0.2L513.8,341.9L513.8,341.9z
		 M481.3,332.9c-1.4-0.1-2.5,1-2.6,2.3l0,0l0,0c0,0.6,0.2,1.3,0.6,1.7c0.4,0.5,1,0.8,1.7,0.8l0,0l32.6,1.7c1.4,0.1,2.5-0.9,2.6-2.3
		c0-0.7-0.2-1.3-0.6-1.8c-0.4-0.5-1-0.8-1.7-0.8L481.3,332.9L481.3,332.9z M513.8,336.1c0.2,0,0.5,0.1,0.7,0.3
		c0.2,0.2,0.3,0.4,0.2,0.7c0,0.2-0.1,0.5-0.3,0.6c-0.2,0.2-0.4,0.3-0.7,0.2l-32.6-1.7l0,0c-0.2,0-0.5-0.1-0.6-0.3
		c-0.2-0.2-0.2-0.4-0.2-0.7l0,0c0-0.2,0.1-0.5,0.3-0.6c0.2-0.2,0.4-0.2,0.7-0.2L513.8,336.1L513.8,336.1z M513.8,330.3l-32.6-1.7
		c-0.2,0-0.5,0.1-0.7,0.2c-0.2,0.2-0.3,0.4-0.3,0.6l0,0c0,0.2,0.1,0.5,0.2,0.7c0.2,0.2,0.4,0.3,0.6,0.3l0,0l32.6,1.7
		c0.2,0,0.5-0.1,0.7-0.2c0.2-0.2,0.3-0.4,0.3-0.6s-0.1-0.5-0.2-0.7C514.3,330.4,514.1,330.2,513.8,330.3L513.8,330.3z"/>
	<path class="st7" d="M478.6,352c-2,0.9-3.3,3-3.3,5.2c0,11.3-3.7,17.4-10.1,26.1c-6.7,9-10.4,15.8-10.4,27.4
		c0,23.6,19.2,42.8,42.8,42.8c23.6,0,42.8-19.2,42.8-42.8l0,0c0-11.7-3.8-18.4-10.4-27.4c-6.4-8.7-10.1-14.8-10.1-26.1
		c0-2.2-1.3-4.3-3.3-5.2H478.6z"/>
	<path class="st8" d="M497.5,451c22.3,0,40.3-18,40.3-40.3c0-12.5-5-19.3-10.1-26.1c-5.2-7.1-10.5-14.2-10.5-27.3
		c0-1.8-1.5-3.3-3.3-3.3H481c-1.8,0-3.3,1.5-3.3,3.3c0,13.1-5.2,20.2-10.5,27.3c-5,6.8-10.1,13.7-10.1,26.1
		C457.1,433,475.2,451,497.5,451z"/>
	<path class="st9" d="M496.2,352.2c-0.3,15.4,0,32.1-2.5,47.3c1.3-0.1,2.6,0.1,3.8,0.6c1.1-0.4,2.2-0.6,3.4-0.6
		c-2.9-15-2.2-32.1-2.2-47.3h1.6c-0.1,15.3-0.8,32.4,2.2,47.5l0.5,0.1c1.9,0.5,3.6,1.7,4.8,3.4l0,0c0.7,1.1,0.6,2.5-0.3,3.4l0,0
		c-0.5,0.5-1.2,0.8-1.9,0.8c-1.7,0-3.3-1.1-4.5-6.2c-0.6,0-1.2,0-1.8,0.1c0.7,0.7,1.3,1.6,1.6,2.6c0.2,0.8,0.3,1.7,0.2,2.5
		c-0.1,0.8-0.4,1.6-0.9,2.2c-0.7,0.8-1.7,1.3-2.7,1.3c-1.1,0-2.1-0.4-2.7-1.3c-0.5-0.6-0.8-1.4-0.9-2.2c-0.1-0.9,0-1.7,0.2-2.5l0,0
		c0.3-1,0.8-1.9,1.6-2.6c-0.7-0.1-1.4-0.1-2.2-0.1c-1.1,5-2.5,6.2-4.2,6.2c-0.7,0-1.4-0.3-1.9-0.8l0,0c-0.9-0.9-1-2.3-0.3-3.4l0,0
		c1.2-1.6,2.9-2.8,4.8-3.4h0.2c2.6-15.3,2.3-32.1,2.6-47.6H496.2z M489.2,405.8c0.9,0,1.7-0.8,2.4-4.1c-1.3,0.5-2.4,1.4-3.2,2.5l0,0
		c-0.1,0.1-0.1,0.2-0.1,0.3c0,0.1,0,0.2,0,0.3c0,0.3,0.1,0.5,0.3,0.7l0,0C488.7,405.7,489,405.8,489.2,405.8L489.2,405.8z
		 M499.3,404.3c0.3-1-0.2-2.2-1.3-2.5c-1-0.3-2.2,0.2-2.5,1.3c-0.1,0.4-0.1,0.8,0,1.2l0,0c-0.2,0.6-0.2,1.2-0.1,1.9
		c0.1,0.5,0.3,1,0.6,1.4c0.7,0.8,2,0.9,2.8,0.1l0.1-0.1c0.3-0.4,0.5-0.9,0.6-1.4C499.6,405.6,499.5,405,499.3,404.3L499.3,404.3z
		 M506.5,404.2c-0.9-1.3-2.1-2.2-3.6-2.6c0.9,3.4,1.8,4.2,2.8,4.2c0.3,0,0.5-0.1,0.7-0.3l0,0c0.2-0.2,0.3-0.4,0.3-0.7
		c0-0.1,0-0.2,0-0.3C506.6,404.4,506.6,404.3,506.5,404.2L506.5,404.2z"/>
	<path class="st10" d="M481.5,436.7c3.6-3-9.8-19.1-13.5-16S477.9,439.7,481.5,436.7z"/>
	<path class="st10" d="M465.6,416.8c3.3-0.1,3-14.9-0.3-14.8S462.2,416.8,465.6,416.8z"/>
	<path class="st5" d="M473.8,360.1h47.3v-41.5c0-17.6-47.3-17.6-47.3,0V360.1z"/>
	<rect x="479.5" y="318.6" class="st6" width="1.6" height="36.5"/>
	<rect x="495.4" y="-2.1" class="st11" width="4.1" height="308.3"/>
	<polygon class="st5" points="493.7,306.2 501.1,306.2 500.3,288 494.5,288 	"/>
</g>
<g id="Lamp5">
	<path class="st1" d="M595.8,320c-0.3-1.4-2.2-2.5-4.5-2.5s-4.2,1.1-4.5,2.5h-5.1c-1.1,0-2.1,0.9-2.1,2.1v0.8h-0.8
		c-1.9,0-3.4,1.5-3.4,3.5v20.4l-2.1,1.5v5.1h36.1v-3.6l-2.1-1.5v-21.9c0-1.9-1.5-3.4-3.5-3.5H603V322c0-1.1-0.9-2.1-2.1-2.1l0,0
		h-5.1V320z"/>
	<path class="st2" d="M606.4,348.2v-21.9c0-1.5-1.2-2.7-2.7-2.7h-24.9c-1.5,0-2.7,1.2-2.7,2.7v20.8l-0.3,0.2l-1.8,1.3v4h34.6v-2.5
		l-1.8-1.3l-0.3-0.2L606.4,348.2L606.4,348.2z M602.2,322.1L602.2,322.1c0-0.3-0.1-0.7-0.4-0.9l0,0c-0.2-0.2-0.6-0.4-0.9-0.4h-19.2
		c-0.7,0-1.3,0.6-1.3,1.3H602.2L602.2,322.1z M578.8,322.1L578.8,322.1c0-1.6,1.3-2.8,2.8-2.8h4.7c0.3-0.6,0.8-1,1.4-1.4
		c2.2-1.3,5-1.3,7.2,0c0.6,0.3,1,0.8,1.4,1.4h4.6c0.8,0,1.5,0.3,2,0.8l0,0c0.5,0.5,0.8,1.2,0.8,2l0,0c2.3,0,4.2,1.9,4.2,4.2v21.5
		l1.8,1.3l0.3,0.2v4.7h-37.6v-6.3l0.3-0.2l1.8-1.3v-20C574.6,324,576.5,322.1,578.8,322.1L578.8,322.1z M594.2,319.2l-0.1-0.1
		c-1.8-0.9-3.9-0.9-5.6,0l-0.1,0.1H594.2z"/>
	<path class="st1" d="M575.1,335.6l32.6,1.7c0.9,0.1,1.7,0.9,1.6,1.8l0,0c-0.1,0.9-0.9,1.6-1.8,1.6l-32.6-1.7
		c-0.9-0.1-1.7-0.9-1.6-1.8l0,0C573.3,336.3,574.1,335.6,575.1,335.6L575.1,335.6z M575.1,347.2l32.6,1.7c0.9,0.1,1.7,0.9,1.6,1.8
		l0,0c0,0.9-0.8,1.7-1.8,1.6l0,0l-32.6-1.7c-0.9-0.1-1.7-0.9-1.6-1.8l0,0C573.3,347.9,574.1,347.2,575.1,347.2z M575.1,341.4
		l32.6,1.7c0.9,0.1,1.7,0.9,1.6,1.8l0,0c0,0.9-0.8,1.7-1.8,1.6l0,0l-32.6-1.7c-0.9-0.1-1.7-0.9-1.6-1.8l0,0
		C573.3,342.1,574.1,341.4,575.1,341.4z M575.1,329.8l32.6,1.7c0.9,0.1,1.7,0.9,1.6,1.8l0,0c0,0.9-0.8,1.7-1.8,1.6l0,0l-32.6-1.7
		c-0.9-0.1-1.7-0.9-1.6-1.8l0,0C573.3,330.5,574.1,329.8,575.1,329.8L575.1,329.8z"/>
	<path class="st2" d="M575.1,329.1l32.6,1.7c1.4,0.1,2.4,1.2,2.3,2.6c-0.1,1.4-1.2,2.4-2.6,2.3l-32.6-1.7l0,0
		c-0.6,0-1.3-0.3-1.7-0.8s-0.7-1.1-0.6-1.7l0,0l0,0c0-0.6,0.3-1.3,0.8-1.7C573.8,329.3,574.5,329.1,575.1,329.1L575.1,329.1z
		 M575.1,346.5l32.6,1.7c0.7,0,1.3,0.3,1.7,0.8c0.9,1,0.8,2.6-0.2,3.5c-0.5,0.4-1.1,0.7-1.8,0.6l-32.6-1.7c-0.7,0-1.3-0.3-1.7-0.8
		s-0.7-1.1-0.6-1.8c0-0.7,0.3-1.3,0.8-1.7C573.8,346.7,574.5,346.5,575.1,346.5z M607.7,349.7L575,348c-0.2,0-0.5,0.1-0.7,0.2
		c-0.2,0.2-0.3,0.4-0.3,0.6c0,0.3,0.1,0.5,0.2,0.7c0.2,0.2,0.4,0.3,0.7,0.3l32.6,1.7c0.3,0,0.5-0.1,0.7-0.2c0.2-0.2,0.3-0.4,0.3-0.6
		c0-0.3-0.1-0.5-0.2-0.7C608.1,349.9,607.9,349.7,607.7,349.7z M575.1,340.7c-0.7,0-1.3,0.2-1.8,0.6s-0.8,1-0.8,1.7l0,0l0,0
		c0,0.6,0.2,1.3,0.6,1.7c0.4,0.5,1,0.8,1.7,0.8l0,0l32.6,1.7l0,0c0.6,0,1.3-0.2,1.7-0.6c0.3-0.3,0.5-0.6,0.7-1h0.1V345
		c0-0.6-0.2-1.3-0.6-1.8l0,0c-0.4-0.5-1-0.8-1.7-0.8L575.1,340.7z M607.7,344c0.2,0,0.5,0.1,0.7,0.3l0,0c0.1,0.2,0.2,0.3,0.2,0.5
		v0.2c0,0.2-0.1,0.5-0.3,0.6c-0.2,0.2-0.4,0.3-0.7,0.2l0,0l-32.6-1.7l0,0c-0.2,0-0.5-0.1-0.6-0.3c-0.2-0.2-0.2-0.4-0.2-0.7l0,0
		c0-0.5,0.5-0.9,1-0.9L607.7,344L607.7,344z M575.1,335c-0.7,0-1.3,0.2-1.8,0.6s-0.8,1-0.8,1.7l0,0l0,0c0,0.6,0.2,1.3,0.6,1.7
		c0.4,0.5,1,0.8,1.7,0.8l0,0l32.6,1.7c1.4,0.1,2.5-1,2.6-2.3c0-0.7-0.2-1.3-0.6-1.8c-0.4-0.5-1-0.8-1.7-0.8L575.1,335L575.1,335z
		 M607.7,338.2c0.2,0,0.5,0.1,0.7,0.3c0.2,0.2,0.3,0.4,0.2,0.7c-0.1,0.5-0.5,0.9-1,0.9l-32.6-1.7l0,0c-0.2,0-0.5-0.1-0.6-0.3
		c-0.2-0.2-0.2-0.4-0.2-0.7l0,0c0-0.5,0.5-0.9,1-0.9L607.7,338.2L607.7,338.2z M607.7,332.4l-32.6-1.7c-0.5,0-1,0.4-1,0.9l0,0
		c0,0.2,0.1,0.5,0.2,0.7c0.2,0.2,0.4,0.3,0.6,0.3l0,0l32.6,1.7c0.5,0,0.9-0.4,1-0.9c0-0.3-0.1-0.5-0.2-0.7
		C608.1,332.4,607.9,332.3,607.7,332.4L607.7,332.4z"/>
	<path class="st7" d="M572.4,354.1c-2,0.9-3.3,3-3.3,5.2c0,11.3-3.7,17.4-10.1,26.1c-6.7,9-10.4,15.8-10.4,27.4
		c0,23.6,19.2,42.8,42.8,42.8s42.8-19.2,42.8-42.8l0,0c0-11.7-3.8-18.4-10.4-27.4c-6.4-8.7-10.1-14.8-10.1-26.1
		c0-2.2-1.3-4.3-3.3-5.2H572.4z"/>
	<path class="st8" d="M591.3,453.1c22.3,0,40.3-18,40.3-40.3c0-12.5-5-19.3-10.1-26.1c-5.2-7.1-10.5-14.2-10.5-27.3
		c0-1.8-1.5-3.3-3.3-3.3h-32.9c-1.8,0-3.3,1.5-3.3,3.3c0,13.1-5.2,20.2-10.5,27.3c-5,6.8-10.1,13.7-10.1,26.1
		C551,435,569,453.1,591.3,453.1L591.3,453.1z"/>
	<path class="st9" d="M590.1,354.3c-0.3,15.4,0,32.1-2.5,47.3c1.3-0.1,2.6,0.1,3.8,0.6c1.1-0.4,2.2-0.6,3.3-0.6
		c-2.9-15-2.2-32.1-2.2-47.3h1.6c-0.1,15.3-0.7,32.4,2.2,47.5l0.5,0.1c1.9,0.5,3.6,1.7,4.8,3.4l0,0c0.8,1,0.6,2.5-0.3,3.4l0,0
		c-0.5,0.5-1.2,0.8-1.9,0.8c-1.7,0-3.3-1.1-4.5-6.2c-0.6,0-1.2,0-1.8,0.1c0.7,0.7,1.3,1.6,1.6,2.6c0.2,0.8,0.3,1.7,0.2,2.5
		s-0.4,1.6-0.9,2.2c-0.7,0.8-1.7,1.3-2.7,1.3c-1.1,0-2.1-0.4-2.7-1.3c-0.5-0.7-0.8-1.4-0.9-2.2c-0.1-0.9,0-1.7,0.2-2.5l0,0
		c0.3-1,0.8-1.9,1.6-2.6c-0.7-0.1-1.4-0.1-2.2-0.1c-1.1,5-2.5,6.2-4.2,6.2c-0.7,0-1.4-0.3-1.9-0.8l0,0c-0.7-0.7-1-1.7-0.7-2.7
		c0.1-0.3,0.2-0.5,0.4-0.7l0,0c1.2-1.6,2.8-2.8,4.8-3.4h0.2c2.7-15.3,2.3-32.1,2.6-47.6L590.1,354.3z M583.1,407.9
		c0.9,0,1.7-0.8,2.4-4.1c-1.3,0.5-2.4,1.4-3.2,2.5l0,0c-0.1,0.1-0.1,0.2-0.1,0.3c0,0.1,0,0.2,0,0.3c0,0.3,0.1,0.5,0.3,0.7l0,0
		C582.6,407.8,582.9,407.9,583.1,407.9L583.1,407.9z M593.2,406.4c0.3-1-0.2-2.2-1.3-2.5c-1-0.3-2.2,0.2-2.5,1.3
		c-0.1,0.4-0.1,0.8,0,1.2l0,0c-0.2,0.6-0.2,1.2-0.2,1.9c0.1,0.5,0.3,1,0.6,1.4c0.7,0.8,2,0.9,2.8,0.1l0.1-0.1
		c0.3-0.4,0.5-0.9,0.6-1.4C593.4,407.7,593.4,407,593.2,406.4L593.2,406.4z M600.4,406.3c-0.9-1.3-2.1-2.2-3.6-2.6
		c0.9,3.4,1.8,4.2,2.8,4.2c0.3,0,0.5-0.1,0.7-0.3l0,0c0.2-0.2,0.3-0.4,0.3-0.7c0-0.1,0-0.2,0-0.3
		C600.5,406.5,600.5,406.4,600.4,406.3L600.4,406.3z"/>
	<path class="st10" d="M575.4,438.7c3.6-3-9.8-19.1-13.5-16S571.8,441.7,575.4,438.7z"/>
	<path class="st10" d="M559.4,418.8c3.3-0.1,3-14.9-0.3-14.8S556.1,418.9,559.4,418.8z"/>
	<path class="st5" d="M567.6,362.1h47.3v-41.5c0-17.6-47.3-17.6-47.3,0V362.1z"/>
	<rect x="573.3" y="320.7" class="st6" width="1.7" height="36.5"/>
	<rect x="589.2" y="0" class="st11" width="4.1" height="308.3"/>
	<polygon class="st5" points="587.6,308.3 595,308.3 594.1,290 588.4,290 	"/>
</g>
</svg>
