<?xml version="1.0" encoding="utf-8"?>
<!-- Generator: Adobe Illustrator 25.0.0, SVG Export Plug-In . SVG Version: 6.00 Build 0)  -->
<svg version="1.1" id="Calque_1" xmlns="http://www.w3.org/2000/svg" xmlns:xlink="http://www.w3.org/1999/xlink" x="0px" y="0px"
	 viewBox="0 0 650.5 572.5" style="enable-background:new 0 0 650.5 572.5;" xml:space="preserve">
<style type="text/css">
	.st0{fill:#F8AF00;}
	.st1{fill:#EB6619;}
	.st2{fill:#FFFFFF;}
	.st3{fill:#003C5A;}
	.st4{fill:#002D44;}
	.st5{clip-path:url(#SVGID_2_);fill:#E3E0CC;}
	.st6{clip-path:url(#SVGID_2_);fill:#6F6F6E;}
	.st7{clip-path:url(#SVGID_2_);fill:#EDEADD;}
	.st8{clip-path:url(#SVGID_2_);fill:#868686;}
	.st9{clip-path:url(#SVGID_2_);fill:#FFFFFF;}
	.st10{clip-path:url(#SVGID_2_);fill:#F6F5EE;}
	.st11{fill:#D85409;}
	.st12{fill:#E3E8EC;}
	.st13{fill:#225A80;}
	.st14{fill:#23608A;}
</style>
<rect y="0" class="st0" width="650.5" height="572.5"/>
<g id="MainB">
	<path class="st1" d="M328.5,296.4c-0.2-2.4-2.3-4.2-4.7-4c-2.4,0.2-4.2,2.3-4,4.7c0.2,2.4,2.3,4.2,4.7,4
		C326.9,300.9,328.7,298.8,328.5,296.4L328.5,296.4z"/>
	<polygon class="st1" points="327.8,342.9 322,343.4 319.8,296.8 328.5,296 333.7,342.4 	"/>
	<path class="st1" d="M355.1,305.9c0.5-2.4-1-4.7-3.3-5.2s-4.7,1-5.2,3.3c-0.5,2.4,1,4.7,3.3,5.2l0,0
		C352.3,309.7,354.6,308.2,355.1,305.9z"/>
	<polygon class="st1" points="341.8,346.3 336,345 346.7,303.7 355.2,305.5 347.5,347.5 	"/>
	<path class="st1" d="M308.2,305.1c-0.6-2.3-3-3.7-5.3-3.1s-3.7,3-3.1,5.3s3,3.7,5.3,3.1C307.4,309.8,308.8,307.4,308.2,305.1z"/>
	<polygon class="st1" points="314.7,347.1 309,348.6 299.7,307 308.1,304.8 320.3,345.6 	"/>
	<circle class="st1" cx="287.2" cy="322.6" r="3.5"/>
	<polygon class="st1" points="302.3,352.9 298.1,355 283.9,323.9 290.2,320.8 306.5,350.8 	"/>
	<circle class="st1" cx="379.4" cy="342.1" r="5.8"/>
	<polygon class="st1" points="344.2,389.2 338,384.5 375,338.3 384.3,345.2 350.5,393.8 	"/>
	<path class="st1" d="M298.9,352.4l5.7-5c0.4,1,1.6,1.5,2.6,1.1c0.8-0.3,1.3-1.2,1.2-2.1c0-0.1,0-0.3,0-0.4l5.5-3.2l5.2-1.1
		c0.3,0.7,1.2,1,1.9,0.7c0.5-0.2,0.8-0.7,0.8-1.3l4.6,0.9l7-1.2c0.1,1,1,1.7,2,1.6c0.7-0.1,1.3-0.5,1.6-1.2l9.2,5l1.3,1.2
		c0.1,1.7,0.9,7.7,1.3,10.4c0,2.4,1.9,4.3,4.3,4.5c1.7,0.2,3.4-0.6,4.3-2l4.7,6.3L350,396.1c-1.2,3.9-2.8,10.4-2.8,14.3v9.7H312
		v-9.8c0.1-4.4-0.9-8.8-2.8-12.7l-7.6-21.7c-1.2-4.6-1.5-5.5-1.5-8.3V362c0-1.7-0.4-3.4-1.1-4.9l-0.9-2L298.9,352.4z"/>
	<rect x="308" y="405.9" class="st2" width="43.3" height="11.9"/>
	<rect x="302.7" y="416.1" class="st3" width="54.3" height="156.4"/>
	<rect x="334.3" y="416.1" class="st4" width="22.6" height="156.4"/>
	<path class="st2" d="M308.8,429.1c0-2,1.6-3.6,3.6-3.6s3.6,1.6,3.6,3.6s-1.6,3.6-3.6,3.6l0,0C310.4,432.7,308.8,431.1,308.8,429.1z
		"/>
	<path class="st2" d="M308.8,442.3c0-2,1.6-3.6,3.6-3.6s3.6,1.6,3.6,3.6s-1.6,3.6-3.6,3.6l0,0C310.4,445.9,308.8,444.3,308.8,442.3z
		"/>
</g>
<g id="Feuilles">
	<defs>
		<rect id="SVGID_1_" y="0" width="649.5" height="572.5"/>
	</defs>
	<clipPath id="SVGID_2_">
		<use xlink:href="#SVGID_1_"  style="display:none;overflow:visible;"/>
	</clipPath>
	<path class="st5" d="M195,587.7c-33.8-4.7-66.7-14.2-97.8-28.1c18.9-29.4,34.8-63.9,46.4-102.1c27.1,5,54.7,6.2,82.1,3.4
		C220.6,504.2,210.3,546.8,195,587.7z"/>
	<path class="st6" d="M201.6,477.2c-17.7,0-35.3-1.6-52.7-4.7l0.1-0.9c21.4,3.8,43.1,5.3,64.8,4.4v0.9
		C209.8,477.1,205.7,477.2,201.6,477.2z"/>
	<path class="st6" d="M204.8,486.1c-19.6,0-39.2-1.9-58.4-5.7l0.2-0.9c21.6,4.3,43.7,6.2,65.7,5.6v0.9
		C209.8,486,207.3,486.1,204.8,486.1z"/>
	<path class="st6" d="M207.8,495c-21.6,0-43.1-2.3-64.1-6.8l0.2-0.9c21.9,4.7,44.3,7,66.6,6.8v0.9H207.8z"/>
	<path class="st6" d="M208.7,503.9c-22.8-0.2-45.5-2.9-67.8-8.1l0.2-0.9c22.2,5.1,44.8,7.8,67.6,8L208.7,503.9L208.7,503.9z"/>
	<path class="st6" d="M206.6,512.7c-23.2-0.6-46.2-3.7-68.6-9.3l0.2-0.9c22.4,5.6,45.4,8.7,68.4,9.3V512.7z"/>
	<path class="st6" d="M204.5,521.4c-23.5-1-46.8-4.5-69.5-10.6l0.2-0.9c22.7,6,45.9,9.6,69.3,10.6V521.4z"/>
	<path class="st6" d="M202.2,530.1c-23.8-1.4-47.4-5.4-70.4-11.9l0.2-0.8c22.9,6.5,46.4,10.5,70.1,11.9L202.2,530.1z"/>
	<path class="st6" d="M199.8,538.6c-24.1-1.8-48-6.3-71.2-13.3l0.3-0.8c23.1,7,46.9,11.4,71,13.2L199.8,538.6z"/>
	<path class="st6" d="M197.3,547.1c-24.5-2.2-48.6-7.2-72-14.7l0.3-0.8c23.3,7.5,47.4,12.4,71.8,14.6L197.3,547.1z"/>
	<path class="st6" d="M194.6,555.4c-24.8-2.7-49.2-8.1-72.7-16.1l0.3-0.8c23.5,8,47.8,13.3,72.5,16L194.6,555.4z"/>
	<path class="st6" d="M191.8,563.7c-25.1-3.1-49.7-9-73.5-17.5l0.3-0.8c23.7,8.5,48.3,14.3,73.3,17.5L191.8,563.7z"/>
	<path class="st6" d="M188.9,571.8c-25.3-3.6-50.2-10-74.2-19l0.3-0.8c23.9,9,48.7,15.4,74,19L188.9,571.8z"/>
	<path class="st7" d="M330.5,481.8c-15.4,25.7-34.9,48.6-57.8,67.9c-38.6-18.1-72.1-43.9-99.7-74.1c22.2-7.7,43.2-20.5,61.7-37
		C262.4,458.9,294.9,474.5,330.5,481.8z"/>
	<path class="st6" d="M190.3,482.7L190,482c17.3-8,33.3-18.5,47.5-31.1l0.5,0.6C223.8,464.2,207.7,474.7,190.3,482.7z"/>
	<path class="st6" d="M196.4,488.4l-0.3-0.7c17.3-8.5,33.3-19.5,47.5-32.7l0.5,0.6C229.9,468.8,213.9,479.8,196.4,488.4z"/>
	<path class="st6" d="M202.8,494l-0.4-0.7c17.4-9.1,33.4-20.7,47.4-34.3l0.5,0.6C236.2,473.3,220.2,484.9,202.8,494z"/>
	<path class="st6" d="M209.2,499.4l-0.4-0.7c4.5-2.5,9-5.2,13.3-8l0.4,0.6C218.2,494.2,213.7,496.9,209.2,499.4z"/>
	<path class="st6" d="M215.8,504.7l-0.4-0.7c4.5-2.6,9-5.5,13.3-8.5l0.4,0.6C224.8,499.2,220.3,502,215.8,504.7z"/>
	<path class="st6" d="M222.6,509.8l-0.4-0.7c4.5-2.8,9-5.8,13.3-8.9l0.5,0.6C231.6,504,227.1,507,222.6,509.8z"/>
	<path class="st6" d="M229.5,514.7l-0.4-0.7c4.5-2.9,9-6.1,13.3-9.4l0.5,0.6C238.5,508.6,234,511.8,229.5,514.7z"/>
	<path class="st6" d="M236.6,519.5l-0.4-0.6c17.4-12,33.1-26.3,46.6-42.5l0.6,0.5C269.8,493.1,254,507.5,236.6,519.5z"/>
	<path class="st6" d="M243.8,524.1l-0.4-0.6c17.3-12.6,32.9-27.5,46.4-44.2l0.6,0.5C276.9,496.5,261.2,511.4,243.8,524.1z"/>
	<path class="st6" d="M251.2,528.5l-0.5-0.6c17.3-13.2,32.8-28.6,46-45.9l0.6,0.5C284.1,499.8,268.5,515.2,251.2,528.5z"/>
	<path class="st6" d="M258.7,532.7l-0.5-0.6c17.2-13.8,32.6-29.8,45.7-47.5l0.6,0.5C291.4,502.8,276,518.8,258.7,532.7z"/>
	<path class="st6" d="M266.4,536.7l-0.5-0.6c17.2-14.4,32.4-30.9,45.3-49.2l0.6,0.5C298.9,505.6,283.6,522.2,266.4,536.7z"/>
	<path class="st6" d="M246.1,503.3l-0.2-0.1c-7.8-4.8-15.5-10-22.8-15.5l0.5-0.6c7.3,5.5,14.9,10.6,22.6,15.4
		c10.9-8.7,21-18.3,30.1-28.8l0.6,0.5c-9.3,10.6-19.4,20.3-30.4,29.1H246.1z"/>
	<path class="st6" d="M248.5,498.6l-1.4,1.1c-2-1.2-4-2.5-6-3.8l1.4-1.1C244.5,496.2,246.5,497.4,248.5,498.6z"/>
	<path class="st6" d="M250.4,497.1l-1.4,1.1c-3.3-2-6.6-4-9.8-6.1l1.4-1.1C243.8,493.1,247.1,495.2,250.4,497.1z"/>
	<path class="st6" d="M254.9,493.2l-1.3,1.2c-3.8-2.2-7.6-4.5-11.3-6.9l1.4-1.1C247.3,488.7,251.1,491,254.9,493.2z"/>
	<path class="st6" d="M256.7,491.6l-1.3,1.2c-4.6-2.7-9.1-5.4-13.6-8.3l1.3-1.1C247.5,486.3,252.1,489,256.7,491.6z"/>
	<path class="st6" d="M261.1,487.5l-1.3,1.2c-3.2-1.8-6.4-3.6-9.6-5.5l1.3-1.2C254.7,483.9,257.9,485.7,261.1,487.5z"/>
	<path class="st6" d="M262.8,485.8c-0.4,0.4-0.9,0.8-1.3,1.2c-6.5-3.5-12.7-7.2-18.8-11.2l1.3-1.1
		C250.1,478.7,256.4,482.4,262.8,485.8z"/>
	<path class="st6" d="M267.1,481.5l-1.3,1.3c-4.7-2.4-9.2-5-13.7-7.7l1.3-1.2C257.9,476.6,262.5,479.1,267.1,481.5z"/>
	<path class="st6" d="M268.8,479.8l-1.2,1.3c-4-2.1-7.9-4.2-11.8-6.5l1.3-1.2C260.8,475.6,264.8,477.8,268.8,479.8z"/>
	<path class="st6" d="M272.9,475.3l-1.2,1.3c-5.5-2.7-10.9-5.6-16.1-8.7l1.2-1.2C262.1,469.8,267.5,472.6,272.9,475.3z"/>
	<path class="st6" d="M274.5,473.5l-1.2,1.3c-7-3.4-13.8-7.1-20.4-11.1l1.2-1.2C260.8,466.5,267.6,470.2,274.5,473.5z"/>
	<path class="st7" d="M549.9,524.3c-22.8,24.4-44,48.2-64.2,71.9c-29.6-9.5-60.8-29.5-89.1-60.9c18.4-18.2,37.4-36.1,57.7-54.1
		C485.7,507,519.1,521,549.9,524.3z"/>
	<path class="st6" d="M413,539.3l-0.6-0.6c15.2-15.1,30-29.2,45.2-43.1l0.6,0.6C443,510,428.2,524.1,413,539.3z"/>
	<path class="st6" d="M419.1,545l-0.6-0.6c15.3-15.4,30.2-29.8,45.6-44.1l0.6,0.6C449.3,515.2,434.4,529.6,419.1,545z"/>
	<path class="st6" d="M425.3,550.3l-0.6-0.6c15.4-15.7,30.5-30.4,46.1-45l0.6,0.6C455.7,520,440.7,534.7,425.3,550.3z"/>
	<path class="st6" d="M431.5,555.4l-0.6-0.6c15.5-16,30.7-31,46.5-45.9l0.6,0.6C462.2,524.4,447,539.5,431.5,555.4z"/>
	<path class="st6" d="M437.7,560.2l-0.6-0.6c15.6-16.2,30.9-31.6,46.9-46.9l0.6,0.6C468.6,528.6,453.3,543.9,437.7,560.2z"/>
	<path class="st6" d="M444,564.6l-0.6-0.6c15.6-16.5,31.1-32.1,47.2-47.8l0.6,0.6C475.1,532.5,459.6,548.1,444,564.6z"/>
	<path class="st6" d="M450.3,568.7l-0.6-0.6c15.8-16.8,31.3-32.8,47.6-48.8l0.6,0.6C481.6,535.9,466.1,551.9,450.3,568.7z"/>
	<path class="st6" d="M456.6,572.5l-0.6-0.6c15.8-17.1,31.5-33.3,47.9-49.7l0.6,0.6C488.1,539.2,472.4,555.4,456.6,572.5z"/>
	<path class="st6" d="M463,575.9l-0.6-0.6c15.9-17.3,31.6-33.9,48.2-50.7l0.6,0.6C494.6,542,478.8,558.6,463,575.9z"/>
	<path class="st6" d="M469.3,579.1l-0.6-0.6c15.9-17.6,31.8-34.5,48.5-51.7l0.6,0.6C501,544.6,485.2,561.5,469.3,579.1z"/>
	<path class="st6" d="M475.6,582l-0.6-0.6c16-17.9,32-35.1,48.8-52.6l0.6,0.6C507.5,546.8,491.6,564,475.6,582z"/>
	<path class="st6" d="M481.8,584.5l-0.6-0.6c15.8-17.9,32.3-35.9,49-53.6l0.6,0.6C514.1,548.6,497.6,566.6,481.8,584.5z"/>
	<path class="st5" d="M416.8,616.5c-34.7-12.8-67.6-29.8-98.1-50.7c25.8-22.6,49.2-50.7,68.9-83.2c27.7,11.5,56.7,19.4,86.3,23.7
		C460,545.5,440.8,582.6,416.8,616.5z"/>
	<path class="st6" d="M458.3,518.3c-23.2-4.6-46-11.5-67.9-20.5l0.3-0.8c21.9,8.9,44.6,15.8,67.8,20.4L458.3,518.3z"/>
	<path class="st6" d="M454.9,526.4c-23.5-5.1-46.5-12.4-68.7-21.8l0.4-0.8c22.1,9.4,45,16.7,68.5,21.7L454.9,526.4z"/>
	<path class="st6" d="M451.3,534.3c-23.8-5.5-47.1-13.2-69.4-23.1l0.4-0.8c22.3,9.9,45.5,17.6,69.3,23.1L451.3,534.3z"/>
	<path class="st6" d="M447.6,542.1c-24.1-5.9-47.6-14.1-70.2-24.5l0.4-0.8c22.5,10.4,45.9,18.5,70,24.5L447.6,542.1z"/>
	<path class="st6" d="M443.7,549.8c-24.4-6.4-48.1-15-70.9-25.9l0.4-0.8c22.7,10.8,46.4,19.5,70.7,25.8L443.7,549.8z"/>
	<path class="st6" d="M439.7,557.4c-24.7-6.8-48.6-16-71.5-27.3l0.4-0.8c22.9,11.3,46.8,20.5,71.4,27.2L439.7,557.4z"/>
	<path class="st6" d="M435.6,564.8c-24.9-7.3-49.1-16.9-72.2-28.8l0.4-0.8c23,11.8,47.1,21.4,72,28.7L435.6,564.8z"/>
	<path class="st6" d="M431.4,572.2c-25.2-7.7-49.5-17.8-72.8-30.2l0.4-0.8c23.2,12.3,47.5,22.4,72.6,30.2L431.4,572.2z"/>
	<path class="st6" d="M427.1,579.4c-25.4-8.2-50-18.8-73.3-31.7l0.4-0.8c23.3,12.8,47.8,23.4,73.2,31.6L427.1,579.4z"/>
	<path class="st6" d="M422.6,586.5c-25.6-8.7-50.4-19.8-73.9-33.2l0.4-0.8c23.5,13.4,48.2,24.5,73.7,33.1L422.6,586.5z"/>
	<path class="st6" d="M418.1,593.5c-25.8-9.2-50.8-20.8-74.4-34.7l0.5-0.8c23.6,13.9,48.4,25.5,74.2,34.7L418.1,593.5z"/>
	<path class="st6" d="M413.4,600.3c-26.1-9.7-51.1-21.8-74.9-36.3l0.5-0.8c23.7,14.4,48.7,26.5,74.7,36.2L413.4,600.3z"/>
	<path class="st5" d="M448.2,572.2c-32.4-9.7-63.3-23.8-91.8-42c20.9-26.5,39.2-58.5,53.8-94.7c25.4,8.9,52,14,78.9,15.2
		C479.9,494.7,465.9,535.7,448.2,572.2z"/>
	<path class="st6" d="M476.2,465c-21.2-2.3-42.1-6.9-62.2-13.8l0.3-0.8c20.1,6.9,41,11.5,62.1,13.8L476.2,465z"/>
	<path class="st6" d="M473.9,473.8c-21.5-2.7-42.7-7.8-63.1-15.1l0.3-0.8c20.4,7.3,41.4,12.4,62.9,15.1L473.9,473.8z"/>
	<path class="st6" d="M471.4,482.4c-21.8-3.1-43.3-8.6-63.9-16.4l0.3-0.8c20.6,7.8,41.9,13.3,63.7,16.4L471.4,482.4z"/>
	<path class="st6" d="M468.8,491c-22.1-3.5-43.8-9.5-64.7-17.8l0.3-0.8c20.8,8.3,42.4,14.2,64.5,17.7L468.8,491z"/>
	<path class="st6" d="M466.1,499.5c-22.4-4-44.4-10.4-65.4-19.2l0.3-0.8c21,8.7,42.8,15.1,65.2,19.1L466.1,499.5z"/>
	<path class="st6" d="M463.3,507.8c-22.7-4.4-44.9-11.3-66.1-20.6l0.4-0.8c21.2,9.2,43.3,16.1,65.9,20.5L463.3,507.8z"/>
	<path class="st6" d="M460.3,516.1c-23-4.9-45.4-12.3-66.8-22l0.4-0.8c21.3,9.7,43.7,17.1,66.6,21.9L460.3,516.1z"/>
	<path class="st6" d="M457.2,524.2c-23.3-5.3-45.9-13.2-67.5-23.5l0.4-0.8c21.5,10.2,44.1,18.1,67.3,23.4L457.2,524.2z"/>
	<path class="st6" d="M454,532.3c-23.5-5.8-46.4-14.2-68.1-24.9l0.4-0.8c21.7,10.7,44.5,19.1,68,24.9L454,532.3z"/>
	<path class="st6" d="M450.7,540.2c-23.8-6.3-46.8-15.2-68.7-26.5l0.4-0.8c21.8,11.2,44.8,20.1,68.6,26.4L450.7,540.2z"/>
	<path class="st6" d="M447.3,548c-24.1-6.8-47.3-16.2-69.3-28l0.4-0.8c22,11.8,45.2,21.1,69.2,27.9L447.3,548z"/>
	<path class="st6" d="M443.7,555.6c-24.3-7.3-47.7-17.2-69.9-29.5l0.4-0.8c22.1,12.3,45.5,22.2,69.8,29.5L443.7,555.6z"/>
	<path class="st7" d="M466.5,586.8c-33.4-5-64.7-19.1-90.6-40.8c22.7-17.3,43.3-40.9,59.7-68.7c23.6,9.1,49.2,11.4,74,6.8
		C500.7,520.4,486.2,555,466.5,586.8z"/>
	<path class="st6" d="M480.3,540.5c-22.8-1.3-45-7.3-65.2-17.8l0.3-0.7c20.1,10.4,42.3,16.5,64.9,17.8L480.3,540.5z"/>
	<path class="st6" d="M477,547.4c-23.2-1.8-45.7-8.5-66.1-19.7l0.4-0.7c20.3,11.1,42.7,17.8,65.8,19.6L477,547.4z"/>
	<path class="st6" d="M473.5,554.1c-23.6-2.4-46.4-9.8-66.9-21.6l0.4-0.6c20.4,11.8,43.1,19.2,66.6,21.5L473.5,554.1z"/>
	<path class="st6" d="M469.9,560.8c-24-3-47-11-67.7-23.6l0.4-0.6C423.2,549,446.1,557,470,560L469.9,560.8z"/>
	<path class="st6" d="M466.2,567.3c-24.4-3.6-47.7-12.3-68.4-25.6l0.4-0.6c20.6,13.2,43.8,21.9,68.1,25.5L466.2,567.3z"/>
	<path class="st6" d="M462.3,573.7c-24.7-4.2-48.3-13.7-69-27.7l0.4-0.6c20.7,14,44.1,23.4,68.8,27.6L462.3,573.7z"/>
	<path class="st8" d="M473,499.3c-2.2-1.4-4.7-2.3-7.3-2.6c-10-1.3-21.5,3.4-26.6,11.4s-1.2,17.7,9.8,20.7s24.1-3.5,28.2-13.1
		c-6.5-0.4-13-1.3-19.4-2.6C463.1,508.8,468.2,504.2,473,499.3z"/>
	<path class="st8" d="M478.2,497.5c-4.7,5.1-9.7,9.8-15,14.4c6.4,1,12.9,1.7,19.4,1.9C485.4,506.7,483.2,500.6,478.2,497.5z"/>
	<path class="st7" d="M624.1,500.3c-22.4,24-43.4,47.5-63.6,71.1c-26-14-52.6-39.8-75.8-77.6c18-17.7,36.6-35.1,56.3-52.3
		C567.4,473.4,596.5,492.9,624.1,500.3z"/>
	<path class="st6" d="M499.3,500l-0.6-0.6c14.9-14.8,29.4-28.5,44.1-41.8l0.6,0.6C528.7,471.6,514.2,485.2,499.3,500z"/>
	<path class="st6" d="M504.4,507l-0.6-0.6c15-15,29.6-29,44.6-42.8l0.6,0.6C534,478,519.4,492,504.4,507z"/>
	<path class="st6" d="M509.5,513.7l-0.6-0.6c15.1-15.3,29.9-29.6,45.1-43.8l0.6,0.6C539.4,484,524.7,498.3,509.5,513.7z"/>
	<path class="st6" d="M514.8,520l-0.6-0.6c15.2-15.6,30.1-30.3,45.5-44.8l0.6,0.6C544.9,489.7,530,504.3,514.8,520z"/>
	<path class="st6" d="M520,525.9l-0.6-0.6c15.3-15.9,30.4-30.9,46-45.8l0.6,0.6C550.4,495,535.4,510,520,525.9z"/>
	<path class="st6" d="M525.4,531.5l-0.6-0.6c15.4-16.2,30.6-31.5,46.4-46.7l0.6,0.6C555.9,500.1,540.8,515.4,525.4,531.5z"/>
	<path class="st6" d="M530.7,536.8l-0.6-0.6c15.5-16.5,30.8-32.1,46.8-47.7l0.6,0.6C561.5,504.7,546.3,520.3,530.7,536.8z"/>
	<path class="st6" d="M536.2,541.7l-0.6-0.6c15.6-16.8,31-32.8,47.1-48.8l0.6,0.6C567.2,509,551.7,524.9,536.2,541.7z"/>
	<path class="st6" d="M541.6,546.3l-0.6-0.6c15.7-17.1,31.2-33.4,47.5-49.8l0.6,0.6C572.8,512.9,557.2,529.2,541.6,546.3z"/>
	<path class="st6" d="M547,550.5l-0.6-0.6c15.8-17.4,31.4-34,47.8-50.8l0.6,0.6C578.4,516.5,562.8,533.1,547,550.5z"/>
	<path class="st6" d="M552.5,554.4l-0.6-0.6c15.8-17.7,31.6-34.7,48.1-51.8l0.6,0.6C584.1,519.8,568.3,536.7,552.5,554.4z"/>
	<path class="st6" d="M558,558l-0.6-0.6c15.6-17.7,31.9-35.5,48.5-52.9l0.6,0.6C589.9,522.5,573.6,540.2,558,558z"/>
	<path class="st7" d="M78.3,572C39.6,568.1,1.8,558.5-34,543.5c17.9-24.5,33.1-53,45-84.7c26.6,2.3,53.4,1,79.7-3.8
		C91,494.4,86.8,533.6,78.3,572z"/>
	<path class="st6" d="M52.5,472.3v-0.9c9.4-0.2,18.9-0.8,28.3-1.8l0.1,0.9C71.5,471.5,62,472.1,52.5,472.3z"/>
	<path class="st6" d="M52.5,480h-1.3v-0.9c9.7,0.1,19.5-0.4,29.2-1.2l0.1,0.9C71.1,479.6,61.8,480,52.5,480z"/>
	<path class="st6" d="M58.3,487.6c-2.9,0-5.9,0-8.8-0.1v-0.9c10,0.3,20.1,0.1,30-0.6v0.9C72.6,487.4,65.4,487.6,58.3,487.6z"/>
	<path class="st6" d="M64.2,495.4c-5.5,0-10.9-0.1-16.3-0.4v-0.9c10.2,0.5,20.6,0.5,30.9,0.1v0.9C74,495.3,69.1,495.4,64.2,495.4z"
		/>
	<path class="st6" d="M70,503.2c-8,0-16-0.3-23.9-0.9l0.1-0.9c10.5,0.8,21.2,1,31.7,0.8v0.9C75.3,503.2,72.7,503.2,70,503.2z"/>
	<path class="st6" d="M75.7,511.1c-24.4,0-48.7-2.7-72.5-7.9l0.2-0.8c24.2,5.3,48.8,7.9,73.5,7.8v0.9H75.7z"/>
	<path class="st6" d="M75.7,519c-25.4-0.4-50.7-3.6-75.5-9.5l0.2-0.8c24.7,5.9,49.9,9.1,75.3,9.5V519z"/>
	<path class="st6" d="M74.4,526.8c-26.1-0.9-52-4.7-77.2-11.3l0.2-0.8c25.2,6.6,51,10.4,77,11.3V526.8z"/>
	<path class="st6" d="M73.1,534.6c-26.7-1.4-53.2-5.8-78.9-13.1l0.2-0.8c25.7,7.3,52.1,11.6,78.7,13.1L73.1,534.6z"/>
	<path class="st6" d="M71.6,542.3c-27.3-2-54.3-7-80.6-14.9l0.2-0.8c26.1,7.9,53.1,12.9,80.4,14.9V542.3z"/>
	<path class="st6" d="M69.9,549.9c-27.9-2.5-55.5-8.1-82.2-16.7l0.3-0.8c26.6,8.6,54.1,14.2,82,16.7L69.9,549.9z"/>
	<path class="st6" d="M68.2,557.4c-28.5-3-56.6-9.3-83.8-18.6l0.3-0.8c27.1,9.3,55.1,15.5,83.6,18.6L68.2,557.4z"/>
	<path class="st8" d="M41.5,501.4c-11.6-1-23.2-2.6-34.7-4.8c3.6-8.4,7-17.1,10.1-26c10.4,1,20.9,1.5,31.4,1.4
		C46.3,482,44,491.8,41.5,501.4z"/>
	<path class="st5" d="M117.8,615.5C88.2,601.8,59.1,580,33.9,551c31.9-17.9,61.9-39.2,91.2-62.4c27,18.8,56,30,83.3,33.1
		C179.7,555.1,150,586.6,117.8,615.5z"/>
	<path class="st6" d="M189.2,531.5c-21.7-4.7-44.2-14.5-64.7-28.2l0.5-0.7c20.5,13.7,42.8,23.4,64.4,28.1L189.2,531.5z"/>
	<path class="st6" d="M183,538.1c-22.2-5.4-44-15.4-64.8-29.9l0.5-0.7c20.8,14.4,42.5,24.4,64.5,29.7L183,538.1z"/>
	<path class="st6" d="M176.9,544.6c-22.3-6-44.1-16.6-64.9-31.5l0.5-0.7c20.7,14.9,42.4,25.5,64.6,31.4L176.9,544.6z"/>
	<path class="st6" d="M170.7,551c-22.4-6.5-44.3-17.7-64.9-33.2l0.5-0.7c20.6,15.4,42.4,26.5,64.7,33L170.7,551z"/>
	<path class="st6" d="M164.5,557.4c-22.5-7.1-44.4-18.8-65-34.8l0.5-0.7c20.5,15.9,42.3,27.6,64.7,34.7L164.5,557.4z"/>
	<path class="st6" d="M158.2,563.8c-22.7-7.7-44.5-20-65-36.5l0.6-0.7c20.4,16.4,42.2,28.7,64.7,36.3L158.2,563.8z"/>
	<path class="st6" d="M151.9,570c-22.8-8.3-44.7-21.1-65.1-38.2l0.6-0.7c20.3,17,42.2,29.8,64.8,38L151.9,570z"/>
	<path class="st6" d="M145.6,576.2c-22.9-8.9-44.8-22.2-65.1-39.8l0.6-0.7c20.2,17.5,42.1,30.9,64.8,39.7L145.6,576.2z"/>
	<path class="st6" d="M139.1,582.4c-23-9.5-44.9-23.4-65.1-41.5l0.6-0.7c20.2,18,42,32,64.8,41.4L139.1,582.4z"/>
	<path class="st6" d="M132.7,588.5c-23.1-10-45-24.6-65.1-43.2l0.6-0.7c20.1,18.6,41.9,33.1,64.9,43.1L132.7,588.5z"/>
	<path class="st6" d="M126.2,594.5c-23.2-10.6-45.1-25.8-65.1-45l0.6-0.6c20,19.1,41.8,34.2,64.9,44.8L126.2,594.5z"/>
	<path class="st6" d="M119.6,600.4c-23.3-11.2-45.2-27-65.1-46.7l0.6-0.6c19.9,19.7,41.7,35.3,64.9,46.5L119.6,600.4z"/>
	<path class="st5" d="M596.3,627.3c-29.5-13.7-58.6-35.5-83.8-64.7c31.9-17.9,61.9-39.1,91.3-62.3c27,18.9,56,30.1,83.3,33.2
		C658.2,566.9,628.5,598.4,596.3,627.3z"/>
	<path class="st6" d="M667.7,543.3c-21.7-4.8-44.1-14.5-64.7-28.3l0.5-0.7c20.5,13.7,42.8,23.4,64.4,28.2L667.7,543.3z"/>
	<path class="st6" d="M661.6,549.9c-22.2-5.4-44-15.5-64.8-29.9l0.5-0.7c20.7,14.4,42.4,24.4,64.5,29.8L661.6,549.9z"/>
	<path class="st6" d="M655.4,556.4c-22.3-6-44.1-16.6-64.8-31.6l0.5-0.7c20.7,14.9,42.4,25.5,64.6,31.5L655.4,556.4z"/>
	<path class="st6" d="M649.2,562.9c-22.4-6.6-44.2-17.8-64.9-33.2l0.5-0.7c20.6,15.4,42.3,26.6,64.6,33.1L649.2,562.9z"/>
	<path class="st6" d="M643,569.2c-22.5-7.1-44.4-18.9-65-34.9l0.5-0.7c20.5,16,42.3,27.7,64.7,34.8L643,569.2z"/>
	<path class="st6" d="M636.8,575.6c-22.6-7.7-44.5-20-65-36.6l0.6-0.7c20.4,16.5,42.2,28.7,64.7,36.4L636.8,575.6z"/>
	<path class="st6" d="M630.4,581.8c-22.8-8.3-44.6-21.2-65-38.2l0.6-0.7c20.3,17,42.1,29.8,64.8,38.1L630.4,581.8z"/>
	<path class="st6" d="M624.1,588c-22.9-8.9-44.7-22.3-65.1-39.9l0.6-0.7c20.2,17.5,42,30.9,64.8,39.8L624.1,588z"/>
	<path class="st6" d="M617.7,594.2c-23-9.5-44.8-23.5-65.1-41.6l0.6-0.7c20.1,18.1,42,32,64.8,41.5L617.7,594.2z"/>
	<path class="st6" d="M611.2,600.2c-23.1-10.1-45-24.6-65.1-43.3l0.6-0.7c20,18.6,41.9,33.1,64.8,43.2L611.2,600.2z"/>
	<path class="st6" d="M604.7,606.2c-23.2-10.7-45-25.8-65.1-45l0.6-0.6c20,19.1,41.8,34.2,64.8,44.8L604.7,606.2z"/>
	<path class="st6" d="M598.1,612.2c-23.2-11.3-45.1-27-65-46.8l0.6-0.6c19.8,19.7,41.7,35.4,64.8,46.6L598.1,612.2z"/>
	<path class="st9" d="M45.2,623.6c-31.6-12.8-54.6-27.8-69.6-46.5c43.5-43.5,73.8-75.7,88.5-99.7c14.3,21.8,36.8,40.5,68.2,57.5
		C118.8,556.2,89,584.6,45.2,623.6z"/>
	<path class="st6" d="M116.5,537c-23.1-13.3-40.4-27.6-52.9-43.6l0.8-0.6c12.5,15.9,29.7,30.1,52.7,43.3L116.5,537z"/>
	<path class="st6" d="M112.7,542c-23.1-13.2-40.5-27.2-53.1-43.1l0.8-0.6c12.5,15.7,29.8,29.7,52.8,42.8L112.7,542z"/>
	<path class="st6" d="M108.4,547.2c-23.2-13-40.6-26.9-53.2-42.6L56,504c12.6,15.6,29.9,29.4,53,42.3L108.4,547.2z"/>
	<path class="st6" d="M103.7,552.6c-23.2-12.8-40.6-26.5-53.4-42l0.8-0.6c12.6,15.4,30,29.1,53.1,41.8L103.7,552.6z"/>
	<path class="st6" d="M98.6,558.2c-23.2-12.5-40.7-26.1-53.5-41.5l0.8-0.6c12.7,15.3,30.1,28.8,53.2,41.2L98.6,558.2z"/>
	<path class="st6" d="M93,564.2c-23.2-12.3-40.8-25.7-53.6-40.9l0.8-0.6c12.7,15.1,30.1,28.4,53.2,40.7L93,564.2z"/>
	<path class="st6" d="M86.9,570.3C63.7,558.2,46.1,545,33.3,530l0.8-0.6c12.8,14.9,30.2,28,53.4,40.1L86.9,570.3z"/>
	<path class="st6" d="M80.4,576.7c-23.3-11.9-40.8-24.9-53.7-39.7l0.7-0.6c12.8,14.8,30.3,27.7,53.4,39.5L80.4,576.7z"/>
	<path class="st6" d="M73.5,583.4c-23.3-11.6-40.9-24.4-53.8-39.1l0.7-0.7c12.9,14.7,30.4,27.4,53.6,39L73.5,583.4z"/>
	<path class="st6" d="M66.2,590.4c-23.3-11.4-40.9-24-53.8-38.4l0.7-0.7c12.8,14.4,30.3,26.9,53.5,38.2L66.2,590.4z"/>
	<path class="st6" d="M58.5,597.7c-23.3-11.1-40.9-23.5-53.8-37.8l0.7-0.7c12.8,14.2,30.3,26.4,53.5,37.5L58.5,597.7z"/>
	<path class="st6" d="M50.3,605.2c-23.3-10.9-40.9-23-53.8-37.1l0.7-0.7c12.8,14,30.3,26,53.5,36.9L50.3,605.2z"/>
	<path class="st10" d="M454.2,534.6c-29.8,20-64,32.5-99.7,36.3c-17.8-27.8-33.7-54.6-48.3-80.1c30.9-4.3,60.2-16.2,85.3-34.7
		C410.2,482,431,508.4,454.2,534.6z"/>
	<path class="st6" d="M322,498.1l-0.1-0.8c23.8-4.5,46.5-13.6,66.9-26.7l0.5,0.7C368.7,484.4,345.9,493.6,322,498.1z"/>
	<path class="st6" d="M325.2,503.5l-0.1-0.8c24-4.5,47-13.6,67.6-26.7l0.5,0.7C372.4,489.9,349.3,499,325.2,503.5z"/>
	<path class="st6" d="M328.4,509l-0.1-0.8c24.3-4.5,47.4-13.5,68.3-26.7l0.4,0.7C376.1,495.4,352.8,504.5,328.4,509z"/>
	<path class="st6" d="M331.7,514.4l-0.1-0.8c24.5-4.4,47.9-13.5,69-26.7l0.4,0.7C379.8,500.9,356.3,510,331.7,514.4z"/>
	<path class="st6" d="M335.1,520l-0.1-0.8c24.8-4.4,48.4-13.5,69.8-26.8l0.4,0.7C383.7,506.5,359.9,515.6,335.1,520z"/>
	<path class="st6" d="M338.5,525.5l-0.1-0.8c25-4.4,48.9-13.5,70.5-26.8l0.4,0.7C387.6,511.9,363.6,521.1,338.5,525.5z"/>
	<path class="st6" d="M341.9,531.1l-0.1-0.8c25.3-4.4,49.5-13.5,71.3-26.9l0.4,0.7C391.6,517.5,367.3,526.7,341.9,531.1z"/>
	<path class="st6" d="M345.4,536.7l-0.1-0.8c25.5-4.3,50-13.5,72.1-27l0.4,0.7C395.6,523.1,371,532.3,345.4,536.7z"/>
	<path class="st6" d="M348.9,542.3l-0.1-0.8c25.8-4.4,50.5-13.6,72.9-27.1l0.4,0.7C399.7,528.7,374.8,537.9,348.9,542.3z"/>
	<path class="st6" d="M352.5,547.9l-0.1-0.8c26.1-4.4,51.1-13.6,73.7-27.3l0.4,0.7C403.8,534.3,378.7,543.6,352.5,547.9z"/>
	<path class="st6" d="M356.1,553.6l-0.1-0.8c26.3-4.4,51.6-13.7,74.5-27.4l0.4,0.7C408,539.9,382.6,549.2,356.1,553.6z"/>
	<path class="st6" d="M359.9,559.3l-0.1-0.8c26.6-4.4,52.2-13.8,75.4-27.6l0.4,0.7C412.2,545.5,386.6,554.9,359.9,559.3z"/>
	<path class="st9" d="M626.2,555.9c-23.1,25.5-46.5,49.7-70.9,72.4c-37.2-16.2-75.3-45.5-107.3-87c24.1-12.5,47.6-26.2,70.4-41.1
		C553.2,531.6,591.5,550.3,626.2,555.9z"/>
	<path class="st6" d="M467.5,550.5l-0.5-0.8c17.6-10,35.5-21.3,54.8-34.3l0.5,0.8C503.1,529.3,485.2,540.5,467.5,550.5z"/>
	<path class="st6" d="M474.6,558.2l-0.5-0.8c17.8-10.6,35.8-22.4,55.1-36l0.5,0.7C510.4,535.8,492.4,547.5,474.6,558.2z"/>
	<path class="st6" d="M481.8,565.4l-0.5-0.8c17.9-11.2,36-23.5,55.4-37.6l0.5,0.7C517.8,542,499.7,554.3,481.8,565.4z"/>
	<path class="st6" d="M489.1,572.3l-0.5-0.8c18-11.7,36.2-24.5,55.6-39.3l0.5,0.7C525.3,547.8,507.1,560.6,489.1,572.3z"/>
	<path class="st6" d="M496.5,578.9l-0.5-0.8c18.1-12.3,36.3-25.7,55.7-40.9l0.6,0.7C532.9,553.2,514.6,566.6,496.5,578.9z"/>
	<path class="st6" d="M504,585.1l-0.5-0.7c18.1-12.8,36.4-26.8,55.8-42.6l0.6,0.7C540.5,558.3,522.2,572.3,504,585.1z"/>
	<path class="st6" d="M511.6,590.9l-0.5-0.7c18.2-13.4,36.5-27.9,55.8-44.3l0.6,0.7C548.1,563,529.8,577.5,511.6,590.9z"/>
	<path class="st6" d="M519.2,596.4l-0.5-0.7c18.2-13.9,36.5-29,55.8-46l0.6,0.7C555.8,567.4,537.5,582.4,519.2,596.4z"/>
	<path class="st6" d="M526.9,601.5l-0.6-0.7c18.3-14.5,36.5-30.1,55.8-47.7l0.6,0.7C563.4,571.3,545.2,586.9,526.9,601.5z"/>
	<path class="st6" d="M534.6,606.2l-0.6-0.7c18.2-15.1,36.4-31.2,55.6-49.3l0.6,0.7C571.1,574.9,552.9,591.1,534.6,606.2z"/>
	<path class="st6" d="M542.3,610.5l-0.6-0.7c18.2-15.6,36.4-32.3,55.4-51l0.6,0.7C578.7,578.2,560.6,594.9,542.3,610.5z"/>
	<path class="st6" d="M550.1,614.5l-0.6-0.7c18.2-16.2,36.2-33.5,55.2-52.7l0.6,0.6C586.3,581,568.3,598.3,550.1,614.5z"/>
	<path class="st10" d="M471.9,579.3c-20.2,24.7-45.3,44.9-73.8,59.2c-31.6-22.9-58.9-51.1-80.9-83.4c25.3-3.7,49.4-13.6,70-28.8
		C410.7,548.3,439.2,567.2,471.9,579.3z"/>
	<path class="st6" d="M365.4,552.5l-0.3-0.7c7.9-3.8,15.5-8.2,22.7-13.2l0.4,0.6C381,544.2,373.4,548.6,365.4,552.5z"/>
	<path class="st6" d="M370.5,557.7l-0.3-0.7c8-4,15.6-8.7,22.8-13.8l0.4,0.6C386.2,549,378.5,553.6,370.5,557.7z"/>
	<path class="st6" d="M375.7,562.8l-0.4-0.7c8-4.2,15.6-9.1,22.9-14.5l0.5,0.6C391.4,553.7,383.7,558.5,375.7,562.8z"/>
	<path class="st6" d="M381.1,567.8l-0.4-0.7c8-4.5,15.7-9.5,23-15.1l0.5,0.6C396.9,558.2,389.2,563.3,381.1,567.8z"/>
	<path class="st6" d="M386.6,572.7l-0.4-0.7c8-4.7,15.7-10,23-15.8l0.5,0.6C402.4,562.7,394.7,568,386.6,572.7z"/>
	<path class="st6" d="M359.3,593.3l-0.3-0.7c20.4-7.4,39.3-18.4,55.9-32.3l0.5,0.6C398.8,574.9,379.8,585.9,359.3,593.3z"/>
	<path class="st6" d="M365,599l-0.3-0.7c20.5-8,39.5-19.5,56.2-33.9l0.5,0.6C404.7,579.5,385.6,591,365,599z"/>
	<path class="st6" d="M370.8,604.4l-0.3-0.7c20.7-8.6,39.7-20.6,56.4-35.5l0.5,0.6C410.7,583.8,391.6,595.8,370.8,604.4z"/>
	<path class="st6" d="M376.8,609.8l-0.3-0.7c20.8-9.1,39.9-21.7,56.5-37.2l0.5,0.5C416.9,588,397.7,600.6,376.8,609.8z"/>
	<path class="st6" d="M383,615l-0.3-0.7c20.9-9.7,40.1-22.9,56.6-38.9l0.5,0.5C423.2,592,404,605.2,383,615z"/>
	<path class="st6" d="M389.3,620.2l-0.3-0.7c21-10.3,40.2-24.1,56.8-40.7l0.5,0.5C429.7,596,410.4,609.8,389.3,620.2z"/>
	<path class="st6" d="M395.8,625.1l-0.4-0.7c21.1-10.9,40.3-25.3,56.8-42.4l0.5,0.5C436.3,599.7,417,614.1,395.8,625.1z"/>
	<path class="st8" d="M382.6,574.3c-9.1,5-18.7,9.3-28.5,12.7c-7.2-7.6-13.9-15.5-20.2-23.6c9.5-2.3,18.8-5.6,27.7-9.6
		C368.2,560.9,375.2,567.8,382.6,574.3z"/>
	<path class="st9" d="M201.6,620.7c-33.4-7.1-65.8-17.8-96.8-32c19.2-30.2,40.1-63.5,61.9-100.1c33,6.8,66.7,9.8,100.4,8.8
		C245,542,222.9,583.1,201.6,620.7z"/>
	<path class="st6" d="M248.4,512.7c-26-0.6-51.9-3.6-77.3-8.8l0.2-1c25.4,5.2,51.2,8.2,77.2,8.8L248.4,512.7z"/>
	<path class="st6" d="M243.8,521.5c-26-1.1-51.9-4.4-77.3-10.1l0.2-1c25.3,5.6,51.1,9,77.1,10.1L243.8,521.5z"/>
	<path class="st6" d="M239.2,530.3c-26-1.5-51.8-5.3-77.2-11.3l0.2-1c25.3,6,51.1,9.8,77,11.3V530.3z"/>
	<path class="st6" d="M178.1,531.1c-6.8-1.4-13.7-3-20.5-4.7l0.2-1c6.8,1.7,13.7,3.3,20.4,4.7L178.1,531.1z"/>
	<path class="st6" d="M173.6,538.7c-6.8-1.5-13.6-3.2-20.4-5l0.3-1c6.8,1.8,13.6,3.5,20.4,5L173.6,538.7z"/>
	<path class="st6" d="M169.2,546.3c-6.8-1.6-13.6-3.4-20.4-5.4l0.3-0.9c6.7,1.9,13.6,3.7,20.3,5.3L169.2,546.3z"/>
	<path class="st6" d="M164.7,553.7c-6.7-1.7-13.6-3.6-20.3-5.7l0.3-0.9c6.7,2,13.5,4,20.2,5.7L164.7,553.7z"/>
	<path class="st6" d="M216.4,572.6c-25.9-3.6-51.4-9.5-76.3-17.6l0.3-0.9c24.8,8,50.3,13.9,76.2,17.5L216.4,572.6z"/>
	<path class="st6" d="M211.9,580.8c-25.9-4.1-51.3-10.4-76.1-18.8l0.3-0.9c24.7,8.4,50.1,14.7,75.9,18.8L211.9,580.8z"/>
	<path class="st6" d="M207.4,588.9c-25.8-4.5-51.2-11.2-75.8-20l0.3-0.9c24.6,8.8,49.9,15.5,75.7,20L207.4,588.9z"/>
	<path class="st6" d="M202.9,596.8c-25.7-4.9-51-12-75.6-21.2l0.3-0.9c24.5,9.2,49.7,16.3,75.4,21.2L202.9,596.8z"/>
	<path class="st6" d="M198.5,604.7c-25.7-5.3-50.9-12.9-75.3-22.4l0.4-0.9c24.4,9.6,49.5,17.1,75.1,22.4L198.5,604.7z"/>
	<path class="st6" d="M220.5,564.8c-17.2-2.2-34.3-5.3-51.1-9.4l-0.6-0.2l0.3-0.6c4.7-7.9,9.3-15.8,13.7-23.4l0.8,0.5
		c-4.3,7.5-8.8,15.1-13.4,22.8c16.6,4,33.4,7.1,50.4,9.3L220.5,564.8z"/>
	<path class="st6" d="M221.4,540.7c-0.2,1-0.3,2-0.5,3c2.7-1.4,5.3-2.9,8-4.4c-2.3-0.5-4.7-1-7.1-1.6
		C221.8,538.7,221.6,539.7,221.4,540.7z"/>
	<path class="st6" d="M174.2,554v-1c7.9-0.3,16-0.9,23.9-1.8c2.4-2.8,4.9-5.7,7.2-8.5l0.1-0.1h0.2c7.1-0.9,14.3-2.1,21.3-3.4l0.2,1
		c-7,1.3-14.1,2.5-21.2,3.4c-2.4,2.8-4.8,5.7-7.2,8.5l-0.1,0.2h-0.2C190.3,553.1,182.2,553.7,174.2,554z"/>
	<path class="st9" d="M654.2,575.7c-32.4,16-67.3,23.7-101.3,22.8c-19.3-32.9-36.4-63.3-53.2-90.8c32,0.8,63.6-6.6,92-21.3
		C609.9,514.1,630.2,544.2,654.2,575.7z"/>
	<path class="st6" d="M516.3,517.4v-0.8c24.6-0.8,48.9-6.4,71.4-16.4l0.3,0.8C565.4,511,541,516.6,516.3,517.4z"/>
	<path class="st6" d="M519.8,523.3v-0.8c24.7-0.8,49.1-6.4,71.7-16.4l0.3,0.8C569.2,516.9,544.7,522.5,519.8,523.3z"/>
	<path class="st6" d="M523.4,529.3v-0.8c24.9-0.8,49.3-6.4,72.1-16.5l0.3,0.8C573,522.9,548.4,528.5,523.4,529.3z"/>
	<path class="st6" d="M527,535.4v-0.8c6.5-0.2,13-0.7,19.4-1.5l0.1,0.8C540.1,534.7,533.5,535.2,527,535.4z"/>
	<path class="st6" d="M530.7,541.5v-0.8c6.5-0.2,13.1-0.7,19.5-1.6l0.1,0.8C543.8,540.8,537.2,541.3,530.7,541.5z"/>
	<path class="st6" d="M534.3,547.7v-0.8c6.6-0.2,13.1-0.7,19.7-1.6l0.1,0.8C547.6,547,540.9,547.5,534.3,547.7z"/>
	<path class="st6" d="M538,554v-0.8c6.6-0.2,13.2-0.7,19.8-1.6l0.1,0.8C551.3,553.3,544.6,553.8,538,554z"/>
	<path class="st6" d="M541.8,560.4v-0.8c25.6-0.8,50.9-6.5,74.4-16.7l0.3,0.8C592.9,553.9,567.5,559.6,541.8,560.4z"/>
	<path class="st6" d="M545.6,566.8V566c25.8-0.8,51.2-6.5,74.9-16.8l0.3,0.8C597.1,560.3,571.5,566.1,545.6,566.8z"/>
	<path class="st6" d="M549.5,573.4v-0.8c26-0.8,51.7-6.6,75.5-16.9l0.3,0.8C601.3,566.8,575.6,572.5,549.5,573.4z"/>
	<path class="st6" d="M553.4,580v-0.8c26.2-0.8,52.1-6.6,76.2-17.1l0.3,0.8C605.7,573.3,579.7,579.2,553.4,580z"/>
	<path class="st6" d="M557.3,586.6v-0.8c26.5-0.9,52.5-6.7,76.9-17.2l0.3,0.8C610.1,579.9,583.9,585.8,557.3,586.6z"/>
	<path class="st6" d="M562.7,552.2l-0.2-0.2c-3.5-5.7-7-11.4-10.4-17l-1.3-2.1l0.7-0.4l1.3,2.1c3.3,5.5,6.7,11,10.2,16.7
		c16.8-2.7,33.2-7.5,48.9-14.2l0.3,0.8c-15.8,6.8-32.4,11.6-49.3,14.3L562.7,552.2z"/>
	<path class="st6" d="M568.9,543c-1.5,0.3-2.9,0.6-4.4,0.9l3.3,5.3c1.5-0.3,2.9-0.6,4.4-0.9C571.1,546.6,570,544.8,568.9,543z"/>
	<path class="st6" d="M575.8,539.5c-1.5,0.4-2.9,0.7-4.3,1.1l4.4,7c1.5-0.3,2.9-0.7,4.4-1.1L575.8,539.5z"/>
	<path class="st6" d="M579.2,530.2c-1.4,0.4-2.8,0.8-4.3,1.2c2.9,4.7,5.9,9.4,9,14.1c1.5-0.4,2.9-0.8,4.4-1.2
		C585.2,539.5,582.2,534.8,579.2,530.2z"/>
	<path class="st6" d="M589.1,530.9c-1.4,0.5-2.8,1-4.3,1.4c2.3,3.6,4.6,7.2,7,10.8c1.4-0.5,2.9-0.9,4.3-1.4
		C593.8,538.1,591.5,534.5,589.1,530.9z"/>
	<path class="st6" d="M593,522.1c-1.4,0.5-2.8,1.1-4.2,1.6c3.6,5.5,7.2,11.1,11,16.8c1.4-0.5,2.9-1,4.3-1.6
		C600.3,533.2,596.6,527.6,593,522.1z"/>
	<path class="st9" d="M297.9,612.8c-32.4-19.8-63.5-39.8-94.3-59.9c27.9-16.7,57.1-42.6,84.6-77.7c30.6,10,60.9,20,91.9,29.8
		C355.3,549.8,326.9,586,297.9,612.8z"/>
	<path class="st6" d="M360.8,516.5c-23.7-8.3-47.4-16.9-70.4-25.1l-1-0.4l0.3-0.9l1,0.4c23,8.3,46.7,16.8,70.4,25.1L360.8,516.5z"/>
	<path class="st6" d="M355.3,525c-24.8-9.2-49.7-18.7-71.7-27.1l0.4-0.9c22,8.4,46.9,17.9,71.7,27.1L355.3,525z"/>
	<path class="st6" d="M349.8,533.3c-24-9.3-47.8-18.9-72-28.7l0.4-0.9c24.3,9.8,48,19.3,72,28.7L349.8,533.3z"/>
	<path class="st6" d="M344.2,541.4c-24.9-10.2-49.4-20.5-72.3-30.3l0.4-0.9c23,9.7,47.5,20.1,72.3,30.3L344.2,541.4z"/>
	<path class="st6" d="M338.6,549.1c-25.5-11-50.8-22.2-72.5-31.9l0.4-0.9c21.7,9.7,47,20.9,72.5,31.9L338.6,549.1z"/>
	<path class="st6" d="M332.8,556.7c-25-11.2-49.7-22.7-72.7-33.5l0.4-0.9c23,10.8,47.8,22.3,72.7,33.5L332.8,556.7z"/>
	<path class="st6" d="M327,563.9c-25.4-12-50-23.9-72.9-35.1l0.4-0.9c22.8,11.2,47.4,23.1,72.8,35.1L327,563.9z"/>
	<path class="st6" d="M321.2,570.9c-26-12.7-51.4-25.7-72.9-36.7l0.4-0.9c21.5,11,47,24,72.9,36.7L321.2,570.9z"/>
	<path class="st6" d="M315.3,577.7c-26.4-13.5-51.7-27-73-38.3l0.5-0.9c21.3,11.4,46.6,24.8,73,38.3L315.3,577.7z"/>
	<path class="st6" d="M309.4,584.2c-26.9-14.4-53.1-28.9-73-40l0.5-0.8c19.8,11.1,46.1,25.6,73,40L309.4,584.2z"/>
	<path class="st6" d="M303.5,590.4c-27.2-15.1-53.3-30.2-73-41.6l0.5-0.8c19.7,11.4,45.8,26.5,72.9,41.6L303.5,590.4z"/>
	<path class="st6" d="M297.5,596.3c-21.5-12.4-44-25.7-72.9-43.2l0.5-0.8c28.9,17.5,51.4,30.8,72.9,43.2L297.5,596.3z"/>
</g>
<g id="MainH">
	<path class="st11" d="M241.6,134.3c-0.8-0.3-1.6-0.7-2.3-1.3c-3.5-2.8-21.2-22.2-25.5-27.5c-6.4-7.9-8.4-10.4-11.6-15.3l1.1-9.1
		l14.9-13.4c2.3-2.4,3.6-1.3,5.7-1.1c24.3,2.1,32.3,11.1,34.7,13.8c2,2.3,10.4,11.9,14.4,18.1c3.4,4.8,4.2,13.4-2.2,17.8
		s-10.3,9.1-14.8,11.2C251.5,129.6,248.9,135.7,241.6,134.3z"/>
	<path class="st12" d="M350.7,65.4c50.6,32.1,65.6,99.1,33.5,149.6s-99.1,65.6-149.6,33.5s-65.6-99-33.5-149.6l0,0
		C233.1,48.4,300.1,33.3,350.7,65.4z M242,124.9c-17.7,28-9.4,65,18.5,82.7c28,17.7,65,9.4,82.7-18.5c17.7-28,9.4-65-18.5-82.7
		C296.8,88.6,259.7,96.9,242,124.9L242,124.9z"/>
	<path class="st2" d="M346.4,72.2c46.8,29.7,60.7,91.7,31,138.5s-91.7,60.7-138.5,31s-60.7-91.7-31-138.5l0,0
		C237.6,56.4,299.6,42.6,346.4,72.2z M235.7,120.9c-19.9,31.5-10.6,73.1,20.9,93.1s73.1,10.6,93.1-20.9
		c19.9-31.5,10.6-73.1-20.8-93.1C297.3,80.1,255.6,89.5,235.7,120.9L235.7,120.9z"/>
	<path class="st13" d="M317.8,102.6l20.1-44.2c-25.6-11.8-54.8-13.1-81.4-3.7l16.3,45.7C287.5,95.3,303.7,96.1,317.8,102.6z"/>
	<path class="st13" d="M190.6,193.6l45.6-16.3c-5.3-14.9-4.6-31.3,2.1-45.6l-44.1-20C182.3,137.4,181,166.8,190.6,193.6z"/>
	<path class="st13" d="M347.3,181.5l44.2,20.1c11.6-25.7,12.7-54.8,3.2-81.3L349,136.6C354.3,151.2,353.7,167.3,347.3,181.5z"/>
	<path class="st13" d="M268,211.7l-20,44.1c25.8,11.7,55.2,12.8,81.8,3.1l-16.4-45.7C298.7,218.7,282.4,218.1,268,211.7z"/>
	<path class="st14" d="M264.9,218.5l-13.6,29.9c23.9,10.8,51.1,11.9,75.8,2.9l-11.1-31C299.4,226.4,281,225.8,264.9,218.5z"/>
	<path class="st14" d="M354.2,184.6l30,13.6c10.7-23.8,11.8-50.8,2.9-75.3L356,134.1C362,150.5,361.3,168.7,354.2,184.6z"/>
	<path class="st14" d="M198.2,190.8l31-11.1c-6-16.7-5.1-35.1,2.4-51.1l-30-13.6C190.5,138.9,189.3,166.1,198.2,190.8z"/>
	<path class="st14" d="M320.9,95.8l13.6-30c-23.7-10.9-50.7-12.1-75.3-3.4l11.1,31C286.8,87.6,305,88.5,320.9,95.8z"/>
	<path class="st1" d="M202.2,90.2c-2.1-4.2-1.9-6.1-5.3-10.2L186,70.2l24.8-27.1l5.5,5l22.9,2.8c3.6,0.2,7,0.9,8.4,1.8l18.6,11.7
		c1.5,1.2,2.8,2.5,3.9,4L284,85.5c2.6,3.1,3,7.7-0.3,10.3s-6.6,2.7-10.6-1.9c0,0-5.5-6.7-11.7-13.3c-0.8-0.9-1.7-1.6-2.7-2.2
		l-6.3-4.1c-1.1-0.8-11.6,6.2-29.3-3.5C220.6,69.7,209.4,74.7,202.2,90.2z"/>
	<path class="st11" d="M252.5,74.1l6.3,4.1c1,0.6,1.9,1.4,2.7,2.2c6.2,6.7,11.7,13.3,11.7,13.3c4,4.7,7.4,4.5,10.6,1.9
		c2.1-1.7,2.9-4.5,2-7c-0.5,3.5-5.5,6.6-8.1,4.2c-2.1-2.4-13.5-14.7-13.5-14.7c-0.7-0.8-1.6-1.5-2.6-2.1l-6.5-4.6
		c-0.6-0.6-1.4-0.8-2.2-0.6c-2.1,1.1-12.9,4.1-20.7,3.4C244.4,78,251.6,73.4,252.5,74.1z"/>
	
		<rect x="174.6" y="48.7" transform="matrix(0.6739 -0.7388 0.7388 0.6739 23.6457 162.8091)" class="st2" width="43.3" height="11.9"/>
	<g>
		<polygon class="st3" points="67.7,-99.1 46.3,-75.7 189.9,55.2 174.6,71.9 31.1,-59 31.1,-59 174.6,71.9 211.2,31.8 		"/>
		<polygon class="st4" points="189.9,55.2 46.3,-75.7 46.3,-75.7 31.1,-59 31.1,-59 174.6,71.9 		"/>
	</g>
	<path class="st1" d="M249.5,130.1L235.6,112c-4.9-6.3-13.8,0-8.9,6.9l12.7,18.3c2.1,3.1,6.2,1.9,8.3,0.4
		C249.6,136.3,251.6,133.2,249.5,130.1z"/>
	<path class="st11" d="M249.5,130.1L235.6,112c-3-3.8-7.5-3-9.4-0.1c2.6-1.7,6.3-1.7,8.1,1l13.5,19.2c0.5,1,1.4,1.8,2.4,2.2
		C250.6,132.9,250.4,131.3,249.5,130.1z"/>
	<path class="st1" d="M261.7,124.5l-15.4-20.1c-5.4-7-15.3-0.1-9.9,7.7l14.1,20.3c2.4,3.4,6.9,2.1,9.2,0.4
		C261.8,131.3,264.1,128,261.7,124.5z"/>
	<path class="st11" d="M261.7,124.5l-15.4-20.1c-3.9-5-10.2-2.8-11.3,1.8c3.1-3.5,7.5-2.8,9.1-0.5l16.2,22.4c0.4,0.7,1.1,1.3,2,1.6
		C263,127.9,262.8,126,261.7,124.5z"/>
	<path class="st1" d="M274.9,120.4l-17.6-23.2c-5.6-7.2-15.8,0-10.2,7.9l16.2,23.4c2.4,3.5,7,2.1,9.5,0.4
		C275,127.5,277.3,124,274.9,120.4z"/>
	<path class="st11" d="M246.2,97.7c3.5-2.7,7.5-0.9,9.3,1.5c0,0,12.1,15.8,13.8,17.9c1.5,1.9,3.4,3.3,5.2,2.7l-17.1-22.5
		C253.7,92.7,248.1,94,246.2,97.7z"/>
	<path class="st1" d="M282,108.1L266.5,88c-5.4-7-15.3-0.1-9.9,7.7l14.1,20.3c2.4,3.4,6.9,2.1,9.2,0.4
		C282,114.9,284.4,111.5,282,108.1z"/>
</g>
</svg>
